<?xml version="1.0" encoding="UTF-8"?>
<!DOCTYPE svg PUBLIC "-//W3C//DTD SVG 1.1//EN" "http://www.w3.org/Graphics/SVG/1.1/DTD/svg11.dtd">
<!-- Creator: CorelDRAW 2020 (64 Bit) -->
<svg xmlns="http://www.w3.org/2000/svg" xml:space="preserve" width="210mm" height="44.194mm" version="1.1" style="shape-rendering:geometricPrecision; text-rendering:geometricPrecision; image-rendering:optimizeQuality; fill-rule:evenodd; clip-rule:evenodd"
viewBox="0 0 21000 4419.4"
 xmlns:xlink="http://www.w3.org/1999/xlink"
 xmlns:xodm="http://www.corel.com/coreldraw/odm/2003">
 <defs>
  <style type="text/css">
   <![CDATA[
    .fil0 {fill:#FEFEFE}
    .fil1 {fill:#FEFEFE;fill-rule:nonzero}
   ]]>
  </style>
 </defs>
 <g id="Camada_x0020_1">
  <metadata id="CorelCorpID_0Corel-Layer"/>
  <g id="_1977877946352">
   <path class="fil0" d="M2103.87 197.52c1165.89,0 2111,945.12 2111,2111 0,1165.88 -945.11,2111 -2111,2111 -1165.88,0 -2111,-945.12 -2111,-2111 0,-1165.88 945.12,-2111 2111,-2111zm-117.01 2111l1045.34 0c71.03,0 129.12,58.08 129.12,129.11l0 0.03c0,71.03 -58.09,129.11 -129.12,129.11l-1045.34 0c-71.03,0 -129.12,-58.08 -129.12,-129.11l0 -0.03c0,-71.03 58.09,-129.11 129.12,-129.11zm-6.06 -1812.15l0.02 0c67.7,0 123.05,55.35 123.05,123.05l0 1566.05c0,67.7 -55.35,123.05 -123.05,123.05l-0.02 0c-67.7,0 -123.06,-55.35 -123.06,-123.05l0 -1566.05c0,-67.7 55.36,-123.05 123.06,-123.05z"/>
   <g>
    <polygon class="fil0" points="4276.51,4029.07 20992.87,4029.07 20992.87,4156.87 4276.51,4156.87 "/>
    <path class="fil1" d="M4950.23 356.73l0 1211.94 204.3 0 0 -502.09 642.33 0 0 502.09 204.3 0 0 -1211.94 -204.3 0 0 526.33 -642.33 0 0 -526.33 -204.3 0zm2236.88 67.52c-98.68,-53.66 -206.01,-81.36 -325.49,-81.36 -119.45,0 -226.8,27.7 -325.49,81.36 -98.68,53.67 -174.85,128.13 -231.99,223.35 -57.15,95.21 -84.85,199.11 -84.85,313.37 0,116 27.7,219.87 84.85,315.1 57.14,95.23 133.31,169.67 231.99,225.07 98.69,55.4 206.04,83.1 325.49,83.1 119.48,0 226.81,-27.7 325.49,-83.1 98.71,-55.4 174.88,-129.84 232,-225.07 57.14,-95.23 84.84,-199.1 84.84,-315.1 0,-114.26 -27.7,-218.16 -84.84,-313.37 -57.12,-95.22 -133.29,-169.68 -232,-223.35zm-541.91 161.02c67.53,-38.09 140.25,-57.14 218.16,-57.14 77.91,0 150.63,19.05 216.42,57.14 65.79,39.83 117.74,91.75 157.54,157.54 38.09,65.79 57.14,138.51 57.14,218.16 0,79.63 -19.05,152.35 -57.14,219.87 -39.8,67.53 -91.75,119.48 -157.54,159.28 -65.79,39.83 -138.51,58.88 -216.42,58.88 -77.91,0 -150.63,-19.05 -216.42,-58.88 -67.53,-39.8 -119.45,-91.75 -159.28,-159.28 -39.82,-67.52 -60.59,-140.24 -60.59,-219.87 0,-79.65 19.03,-152.37 58.85,-218.16 39.83,-65.79 91.78,-117.71 159.28,-157.54zm1845.6 983.4l232 0 -271.82 -405.14c81.39,-31.16 143.7,-79.63 187,-147.16 43.28,-67.52 64.05,-148.89 64.05,-245.86 0,-131.58 -43.28,-233.71 -128.12,-306.43 -84.82,-70.98 -206.04,-107.35 -360.12,-107.35l-491.7 0 0 1211.94 204.3 0 0 -365.32 287.4 0c25.98,0 43.28,0 55.4,-1.74l221.61 367.06zm-277.01 -548.84l-287.4 0 0 -479.58 287.4 0c95.23,0 167.95,19.03 218.16,58.86 50.21,39.82 76.17,98.68 76.17,176.59 0,81.39 -25.96,141.99 -76.17,181.79 -50.21,41.57 -122.93,62.34 -218.16,62.34zm1658.64 548.84l218.14 0 -529.79 -1211.94 -209.49 0 -534.97 1211.94 212.94 0 116 -273.57 611.17 0 116 273.57zm-651 -455.35l228.55 -538.44 228.54 538.44 -457.09 0zm301.27 -1113.24l-171.41 238.91 164.47 17.31 211.23 -169.66 -204.29 -86.56zm1497.6 1568.59l232 0 -271.83 -405.14c81.39,-31.16 143.7,-79.63 187.01,-147.16 43.28,-67.52 64.05,-148.89 64.05,-245.86 0,-131.58 -43.28,-233.71 -128.13,-306.43 -84.81,-70.98 -206.03,-107.35 -360.12,-107.35l-491.69 0 0 1211.94 204.29 0 0 -365.32 287.4 0c25.99,0 43.28,0 55.41,-1.74l221.61 367.06zm-277.02 -548.84l-287.4 0 0 -479.58 287.4 0c95.23,0 167.95,19.03 218.16,58.86 50.21,39.82 76.18,98.68 76.18,176.59 0,81.39 -25.97,141.99 -76.18,181.79 -50.21,41.57 -122.93,62.34 -218.16,62.34zm760.07 -663.1l0 1211.94 204.3 0 0 -1211.94 -204.3 0zm1390.25 67.52c-98.68,-53.66 -206.01,-81.36 -325.49,-81.36 -119.45,0 -226.8,27.7 -325.48,81.36 -98.69,53.67 -174.86,128.13 -232,223.35 -57.14,95.21 -84.85,199.11 -84.85,313.37 0,116 27.71,219.87 84.85,315.1 57.14,95.23 133.31,169.67 232,225.07 98.68,55.4 206.03,83.1 325.48,83.1 119.48,0 226.81,-27.7 325.49,-83.1 98.71,-55.4 174.88,-129.84 232,-225.07 57.14,-95.23 84.84,-199.1 84.84,-315.1 0,-114.26 -27.7,-218.16 -84.84,-313.37 -57.12,-95.22 -133.29,-169.68 -232,-223.35zm-541.91 161.02c67.53,-38.09 140.25,-57.14 218.16,-57.14 77.92,0 150.64,19.05 216.42,57.14 65.79,39.83 117.74,91.75 157.54,157.54 38.09,65.79 57.15,138.51 57.15,218.16 0,79.63 -19.06,152.35 -57.15,219.87 -39.8,67.53 -91.75,119.48 -157.54,159.28 -65.78,39.83 -138.5,58.88 -216.42,58.88 -77.91,0 -150.63,-19.05 -216.42,-58.88 -67.52,-39.8 -119.45,-91.75 -159.28,-159.28 -39.82,-67.52 -60.59,-140.24 -60.59,-219.87 0,-79.65 19.03,-152.37 58.86,-218.16 39.82,-65.79 91.77,-117.71 159.27,-157.54zm2416.95 -150.63c-95.22,-51.95 -204.29,-77.91 -323.77,-77.91l-496.89 0 0 1211.94 491.7 0c121.19,0 230.28,-25.97 325.49,-79.65 95.23,-51.93 171.4,-124.65 225.09,-216.4 53.66,-91.78 81.36,-193.91 81.36,-309.91 0,-116 -25.96,-219.9 -79.65,-311.65 -53.66,-91.78 -128.1,-164.47 -223.33,-216.42zm-107.35 896.84c-64.05,36.34 -133.31,53.66 -211.23,53.66l-297.78 0 0 -844.89 289.14 0c77.91,0 150.63,17.32 214.68,53.67 64.07,36.37 116,88.29 154.08,152.37 36.38,64.05 55.41,136.77 55.41,218.13 0,81.39 -17.32,152.37 -53.67,216.42 -36.34,64.08 -86.55,114.26 -150.63,150.64zm628.47 -974.75l0 1211.94 886.45 0 0 -183.53 -682.15 0 0 -334.13 592.12 0 0 -181.82 -592.12 0 0 -328.94 661.38 0 0 -183.52 -865.68 0zm-10339.53 1995.05l0 1211.94 204.3 0 0 -496.89 550.58 0 0 -181.79 -550.58 0 0 -349.74 607.7 0 1.74 -183.52 -813.74 0zm1262.16 953.98c-57.15,-57.15 -86.56,-136.8 -86.56,-238.93l0 -715.05 -204.3 0 0 715.05c0,105.61 20.77,195.62 64.05,271.82 41.54,77.91 102.16,136.77 181.79,178.31 77.91,41.56 171.4,62.33 278.75,62.33 105.62,0 199.11,-20.77 277.02,-62.33 77.91,-41.54 138.51,-100.4 180.05,-178.31 41.56,-76.2 62.33,-166.21 62.33,-271.82l0 -715.05 -204.29 0 0 715.05c0,102.13 -27.71,183.52 -84.85,240.64 -57.14,57.14 -133.31,86.58 -230.26,86.58 -98.68,0 -176.59,-29.44 -233.73,-88.29zm1897.55 -953.98l0 876.06 -649.27 -876.06 -200.84 0 0 1211.94 204.3 0 0 -872.59 645.81 872.59 200.81 0 0 -1211.94 -200.81 0zm1243.09 211.22c60.6,27.71 112.52,65.79 155.83,114.26l119.45 -148.89c-58.86,-58.86 -128.12,-105.61 -209.49,-140.22 -81.39,-32.92 -166.21,-50.21 -251.05,-50.21 -117.74,0 -225.07,27.7 -322.04,81.36 -98.68,53.67 -174.85,128.13 -230.26,223.35 -57.14,95.21 -84.84,199.11 -84.84,313.37 0,116 27.7,219.87 83.1,315.1 55.41,95.23 131.61,169.67 228.55,225.07 95.23,55.4 202.56,83.1 318.56,83.1 84.84,0 167.94,-19.03 251.05,-55.4 83.1,-36.35 155.82,-84.82 218.16,-147.15l-121.19 -135.06c-46.76,45.02 -98.71,79.65 -157.57,105.62 -60.59,25.96 -119.45,39.82 -180.05,39.82 -79.65,0 -152.37,-19.05 -218.15,-58.86 -65.79,-38.11 -117.74,-90.03 -155.83,-157.56 -39.83,-65.79 -58.86,-138.51 -58.86,-216.42 0,-79.63 19.03,-152.35 57.12,-219.87 38.11,-65.79 90.04,-117.74 157.57,-155.83 65.78,-38.09 138.5,-57.14 218.15,-57.14 60.6,0 121.2,13.86 181.79,41.56zm484.77 -211.22l0 1211.94 204.3 0 0 -1211.94 -204.3 0zm1390.25 67.52c-98.68,-53.66 -206.01,-81.36 -325.49,-81.36 -119.45,0 -226.8,27.7 -325.49,81.36 -98.68,53.67 -174.85,128.13 -231.99,223.35 -57.15,95.21 -84.85,199.11 -84.85,313.37 0,116 27.7,219.87 84.85,315.1 57.14,95.23 133.31,169.67 231.99,225.07 98.69,55.4 206.04,83.1 325.49,83.1 119.48,0 226.81,-27.7 325.49,-83.1 98.71,-55.4 174.88,-129.84 232,-225.07 57.14,-95.23 84.84,-199.1 84.84,-315.1 0,-114.26 -27.7,-218.16 -84.84,-313.37 -57.12,-95.22 -133.29,-169.68 -232,-223.35zm-541.91 161.02c67.53,-38.09 140.25,-57.14 218.16,-57.14 77.91,0 150.63,19.05 216.42,57.14 65.79,39.83 117.74,91.75 157.54,157.54 38.09,65.79 57.14,138.51 57.14,218.16 0,79.63 -19.05,152.35 -57.14,219.87 -39.8,67.53 -91.75,119.48 -157.54,159.28 -65.79,39.83 -138.51,58.88 -216.42,58.88 -77.91,0 -150.63,-19.05 -216.42,-58.88 -67.53,-39.8 -119.45,-91.75 -159.28,-159.28 -39.82,-67.52 -60.59,-140.24 -60.59,-219.87 0,-79.65 19.03,-152.37 58.85,-218.16 39.83,-65.79 91.78,-117.71 159.28,-157.54zm1926.99 -228.54l0 876.06 -649.26 -876.06 -200.84 0 0 1211.94 204.29 0 0 -872.59 645.81 872.59 200.82 0 0 -1211.94 -200.82 0zm1419.69 1211.94l218.14 0 -529.79 -1211.94 -209.48 0 -534.98 1211.94 212.94 0 116 -273.57 611.17 0 116 273.57zm-651 -455.35l228.55 -538.43 228.54 538.43 -457.09 0zm1030.16 -756.59l0 1211.94 188.72 0 0 -908.97 401.66 782.58 129.86 0 398.21 -782.58 1.74 908.97 188.72 0 0 -1211.94 -237.22 0 -415.5 810.27 -419 -810.27 -237.19 0zm1627.46 0l0 1211.94 886.46 0 0 -183.53 -682.16 0 0 -334.13 592.12 0 0 -181.82 -592.12 0 0 -328.94 661.39 0 0 -183.52 -865.69 0zm1985.88 0l0 876.06 -649.27 -876.06 -200.84 0 0 1211.94 204.3 0 0 -872.59 645.81 872.59 200.81 0 0 -1211.94 -200.81 0zm377.41 0l0 183.52 382.63 0 0 1028.42 204.3 0 0 -1028.42 384.37 0 0 -183.52 -971.3 0zm1940.83 67.52c-98.68,-53.66 -206.01,-81.36 -325.49,-81.36 -119.45,0 -226.8,27.7 -325.49,81.36 -98.68,53.67 -174.85,128.13 -232,223.35 -57.14,95.21 -84.84,199.11 -84.84,313.37 0,116 27.7,219.87 84.84,315.1 57.15,95.23 133.32,169.67 232,225.07 98.69,55.4 206.04,83.1 325.49,83.1 119.48,0 226.81,-27.7 325.49,-83.1 98.71,-55.4 174.88,-129.84 232,-225.07 57.14,-95.23 84.84,-199.1 84.84,-315.1 0,-114.26 -27.7,-218.16 -84.84,-313.37 -57.12,-95.22 -133.29,-169.68 -232,-223.35zm-541.91 161.02c67.53,-38.09 140.25,-57.14 218.16,-57.14 77.91,0 150.63,19.05 216.42,57.14 65.79,39.83 117.74,91.75 157.54,157.54 38.09,65.79 57.14,138.51 57.14,218.16 0,79.63 -19.05,152.35 -57.14,219.87 -39.8,67.53 -91.75,119.48 -157.54,159.28 -65.79,39.83 -138.51,58.88 -216.42,58.88 -77.91,0 -150.63,-19.05 -216.42,-58.88 -67.53,-39.8 -119.45,-91.75 -159.28,-159.28 -39.82,-67.52 -60.6,-140.24 -60.6,-219.87 0,-79.65 19.04,-152.37 58.86,-218.16 39.83,-65.79 91.78,-117.71 159.28,-157.54z"/>
   </g>
  </g>
 </g>
</svg>
