<?xml version="1.0" encoding="UTF-8"?>
<!DOCTYPE svg PUBLIC "-//W3C//DTD SVG 1.1//EN" "http://www.w3.org/Graphics/SVG/1.1/DTD/svg11.dtd">
<!-- Creator: CorelDRAW 2020 (64 Bit) -->
<svg xmlns="http://www.w3.org/2000/svg" xml:space="preserve" width="210mm" height="159.129mm" version="1.1" style="shape-rendering:geometricPrecision; text-rendering:geometricPrecision; image-rendering:optimizeQuality; fill-rule:evenodd; clip-rule:evenodd"
viewBox="0 0 21000 15912.9"
 xmlns:xlink="http://www.w3.org/1999/xlink"
 xmlns:xodm="http://www.corel.com/coreldraw/odm/2003">
 <defs>
  <style type="text/css">
   <![CDATA[
    .fil5 {fill:#FEFEFE;fill-rule:nonzero}
    .fil11 {fill:#FAFCFA;fill-rule:nonzero}
    .fil10 {fill:#FAFCF8;fill-rule:nonzero}
    .fil7 {fill:#FAF8F6;fill-rule:nonzero}
    .fil6 {fill:#FAF8F3;fill-rule:nonzero}
    .fil1 {fill:#F7F5EE;fill-rule:nonzero}
    .fil0 {fill:#F7F2EB;fill-rule:nonzero}
    .fil9 {fill:#E5E4E3;fill-rule:nonzero}
    .fil8 {fill:#E5E4E1;fill-rule:nonzero}
    .fil3 {fill:#D3D4D0;fill-rule:nonzero}
    .fil2 {fill:#D3D2D0;fill-rule:nonzero}
    .fil13 {fill:#BFC0BE;fill-rule:nonzero}
    .fil12 {fill:#BDBFBD;fill-rule:nonzero}
    .fil4 {fill:#606569;fill-rule:nonzero}
    .fil15 {fill:#62A4C1;fill-rule:nonzero}
    .fil14 {fill:#20A4D6;fill-rule:nonzero}
   ]]>
  </style>
 </defs>
 <g id="Camada_x0020_1">
  <metadata id="CorelCorpID_0Corel-Layer"/>
  <g id="_1941861916928">
   <path class="fil0" d="M18721.94 6523.29c-50.24,202.66 -98.91,408.63 -150.81,614.55 -63.2,254.55 -126.44,510.75 -191.3,766.96 -115.14,445.95 -231.89,895.11 -353.51,1337.75 -53.5,194.61 -108.66,390.79 -163.77,583.75 -16.23,56.76 -32.45,113.53 -48.63,170.3 -34.06,119.96 -69.73,239.98 -105.4,359.94 -25.97,89.17 -51.89,178.39 -79.47,265.95 -25.93,85.91 -51.9,170.25 -77.82,254.55l-11.35 35.67c-56.77,183.26 -115.14,363.26 -173.52,539.99 -129.71,392.4 -262.69,771.84 -402.14,1131.83 -34.06,87.56 -68.12,175.12 -102.13,261.08 -8.14,19.44 -14.62,38.88 -22.71,56.72 -108.66,270.82 -220.54,528.63 -335.68,771.88 -37.28,77.82 -72.94,152.42 -110.27,225.36 -11.35,22.71 -22.7,47.02 -35.67,69.73 -29.18,59.98 -59.98,118.36 -90.78,175.12 -13,25.97 -27.57,53.51 -43.8,81.08 -24.31,43.76 -48.63,89.18 -74.6,132.98 -238.33,416.71 -489.66,766.96 -752.35,1028.04 -27.57,29.19 -56.76,56.77 -85.95,82.69 -66.51,59.98 -132.97,115.14 -201.09,163.77 -21.05,14.62 -43.76,30.8 -66.47,45.41 -25.92,16.23 -51.89,32.41 -77.82,48.63 -27.57,16.23 -53.54,30.8 -81.08,43.81l-32.45 16.18c-58.19,27.58 -116.75,51.89 -176.73,69.73 -14.62,4.87 -30.8,9.74 -47.02,14.61 -25.97,8.09 -51.9,14.57 -79.47,19.45l-22.71 3.26c-21.05,4.87 -42.15,8.09 -63.2,11.35 -16.23,1.61 -34.06,3.22 -50.29,4.87 -34.06,3.22 -66.46,4.83 -100.52,4.83 -1976.65,0 -966.45,-3473.3 -2549.05,-4352.14l-713.46 0c-84.34,47.02 -160.55,100.52 -230.28,160.51 -100.53,85.95 -188.09,184.87 -264.3,295.14l0 1.6c-877.23,1259.93 -332.41,3894.89 -2054.47,3894.89 -1133.43,0 -2070.69,-1660.42 -2860.36,-3894.89l0 -1.6 -1.61 -4.88c-205.92,-582.14 -402.14,-1201.55 -590.23,-1840.41 -321.06,-1097.77 -617.81,-2253.91 -890.24,-3371.17 -22.71,-94.04 -45.41,-186.48 -68.07,-278.87 -68.12,-280.56 -123.28,-548.08 -168.65,-804.28 -25.97,-141.07 -48.67,-280.52 -66.51,-415.11 -3.21,-21.09 -6.48,-40.54 -8.09,-60.03 -16.22,-113.48 -29.18,-225.36 -40.54,-335.63 -12.96,-136.19 -22.7,-267.56 -29.18,-395.66 -152.42,-2816.56 1258.32,-3911.11 2686.84,-4347.31 1728.54,-526.99 2519.87,351.9 3398.71,849.69 0,0 371.34,436.21 951.87,642.13 178.34,63.24 377.78,105.39 591.84,105.39 906.42,0 1543.67,-747.52 1543.67,-747.52 794.54,-449.16 1516.14,-1211.3 2923.61,-964.79 150.81,25.93 308.1,63.2 475.14,115.1 1288.93,392.44 2561.96,1324.78 2688.45,3572.21 43.81,765.36 -47.02,1684.78 -314.58,2785.81z"/>
   <path class="fil1" d="M7514.3 10846.43c-131.5,0 -263.33,-4.87 -394.33,-14.75 -0.32,0 -0.82,-0.19 -1.14,-0.19 -117.72,-357.69 -237.09,-742.18 -360.64,-1161.98 -150.81,-514.98 -295.28,-1042.33 -430.18,-1554.88 391.94,228.17 790.82,446.08 1205.46,643.09 705.32,335.67 1428.53,634.03 2164.69,895.11 247.61,87.7 496.37,171.21 746.42,250.83 -181.28,61.45 -354.29,146.25 -513.7,255.37 -156.97,107.38 -304.05,228.68 -440.43,363.58 -521.65,160.05 -1056.08,273.35 -1600.25,310.68 -124.38,8.73 -250.05,13.14 -375.9,13.14zm5777.18 -2195.72c-415.93,-125.02 -841.43,-257.03 -1271.29,-395.34 -2208.49,-711.02 -4532.64,-1583.06 -6274.78,-2486.77 -712.04,-3302.72 646.67,-3717 1237.54,-3897.13 185.33,-56.63 348.6,-85.13 485.16,-85.13 269.49,0 473.98,117.21 947.92,427.88 91.15,59.71 188.78,123.74 292.06,188.46 29.65,18.61 57.09,39.39 82.83,63.2 291.09,267.88 779.65,642.95 1426,872.22 389.96,138.17 789.53,208.08 1188.22,208.08 1061.14,0 1878.39,-475.59 2377.51,-875.16 6.62,0.18 13.43,0.32 20.09,0.32 97.95,0 189.56,-26.75 268.2,-73.13 24.32,13.97 51.25,28.22 81.08,43.16 787.1,391.75 1441.03,901.36 1827.96,1715.85 106.04,223.48 189.05,459.88 329.48,663.54 4.68,6.81 9.42,13.47 14.24,20.27 0,0 0,0 0,0.19 -317.79,831.82 -823.72,1600.43 -1435,2253.91 -478.36,512.41 -1018.35,958.31 -1597.22,1355.58l0 0zm3383.94 -5901.69c-219.2,-178.21 -465.39,-322.99 -728.85,-424.99 -313.94,-121.62 -650.72,-181.93 -987.36,-181.93 -130.22,0 -260.26,9.06 -389.19,26.89 -44.58,6.35 -90.96,12.97 -137.34,20.27 447.42,-292.19 647.83,-403.24 909.22,-403.24 67.62,0 142.54,7.12 222.79,21.05 85.45,14.75 166.86,34.56 254.23,61.78 303.09,92.29 569.82,209.69 788.75,387.57 30.8,163.13 53.32,327.86 67.75,492.6z"/>
   <path class="fil2" d="M8499.87 15915.11c-1133.43,0 -2070.69,-1660.42 -2860.36,-3894.89l0 -1.6 -1.61 -4.88c-205.92,-582.14 -402.14,-1201.55 -590.23,-1840.41 610.96,393.87 1335.31,604.66 2071.16,658.16 66.97,203.99 133.61,399.2 200.08,587.34l-0.65 -1.66 14.76 43.3c64.53,181.79 127.46,351.58 188.59,510.3 95.01,246.46 314.08,368.4 533.97,368.4 226.51,0 453.85,-129.2 547.76,-384.26 112.06,-304.7 254.73,-606.32 443,-889.6 13.79,-22.06 28.23,-43.75 43.3,-65.17 120.93,-174.16 254.87,-333.57 400.81,-477.53 0.51,-0.32 1.15,-0.5 1.79,-0.64 449.81,-137.53 888.27,-310.54 1318.63,-504.64 883.25,267.23 1779.28,490.02 2681.52,689.14 329.66,381.73 554.38,819.54 715.89,1259.29 92.76,252.62 318.17,379.75 543.21,379.75 220.22,0 440.07,-121.76 534.94,-367.11 52.53,-136.06 106.36,-280.2 161.51,-433.13 48.31,-134.4 96.3,-271.28 143.64,-410.04 305.02,58.83 610.36,116.88 915.38,174.8 280.53,53.5 569.14,105.39 859.4,142.67 -129.71,392.4 -262.69,771.84 -402.14,1131.83 -34.06,87.56 -68.12,175.12 -102.13,261.08 -8.14,19.44 -14.62,38.88 -22.71,56.72l0 0c-366.47,424.85 -802.68,788.06 -1311.82,1019.95 -248.07,113.02 -530.39,188.08 -802.18,188.08 -246.64,0 -484.51,-61.91 -679.9,-214.01 -332.42,-259.47 -447.56,-702.15 -643.73,-1076.71 -329.2,-627.51 -951.83,-1091.29 -1639.37,-1256.67l0 0c-35.67,-9.74 -69.73,-17.83 -105.4,-24.31 -80.25,-15.4 -191.02,-29.38 -306.95,-29.38 -211.94,0 -441.21,46.38 -531.39,214.2l0 0c-100.53,85.95 -188.09,184.87 -264.3,295.14l0 1.6c-877.23,1259.93 -332.41,3894.89 -2054.47,3894.89z"/>
   <path class="fil3" d="M14751.49 12345.51c-225.04,0 -450.45,-127.13 -543.21,-379.75 -161.51,-439.75 -386.23,-877.56 -715.89,-1259.29 697.23,153.7 1398.05,293.48 2099.19,428.76 -47.34,138.76 -95.33,275.64 -143.64,410.04 -55.15,152.93 -108.98,297.07 -161.51,433.13 -94.87,245.35 -314.72,367.11 -534.94,367.11zm-6695.91 -6.34c-219.89,0 -438.96,-121.94 -533.97,-368.4 -61.13,-158.72 -124.06,-328.51 -188.59,-510.3l-14.76 -43.3 0.65 1.66c-66.47,-188.14 -133.11,-383.35 -200.08,-587.34 0.32,0 0.82,0.19 1.14,0.19 131,9.88 262.83,14.75 394.33,14.75 125.85,0 251.52,-4.41 375.9,-13.14 544.17,-37.33 1078.6,-150.63 1600.25,-310.68 -145.94,143.96 -279.88,303.37 -400.81,477.53 -15.07,21.42 -29.51,43.11 -43.3,65.17 -188.27,283.28 -330.94,584.9 -443,889.6 -93.91,255.06 -321.25,384.26 -547.76,384.26z"/>
   <path class="fil4" d="M17864.16 9826.3l-1.61 0 0 0c55.11,-192.96 110.27,-389.14 163.77,-583.75 121.62,-442.64 238.37,-891.8 353.51,-1337.75 64.86,-256.21 128.1,-512.41 191.3,-766.96 51.9,-205.92 100.57,-411.89 150.81,-614.55 224.77,-924.75 324.79,-1721.27 325.11,-2406.19 -0.32,684.92 -100.34,1481.44 -325.11,2406.19 -50.24,202.66 -98.91,408.63 -150.81,614.55 -63.2,254.55 -126.44,510.75 -191.3,766.96 -115.14,445.95 -231.89,895.11 -353.51,1337.75 -53.5,196.22 -107.01,390.79 -162.16,583.75l0 0z"/>
   <path class="fil2" d="M17862.55 9826.3l0 0c-251.52,-47.16 -544.36,-108.3 -870.94,-182.25 -268.84,-61.13 -560.21,-130.86 -871.07,-208.68 310.35,-1081.73 597.22,-2222.29 867.67,-3333.2 61.32,-252.81 112.57,-496.05 153.43,-729.04 212.4,-78.46 386.38,-272.89 459.37,-492.6 97.77,-295.78 45.04,-621.86 -59.2,-915.2 -85.45,-240.63 -206.24,-467.97 -355.26,-675.03 -102.18,-488.56 -302.59,-809.3 -578.88,-1033.88 0,-0.32 -0.18,-0.69 -0.18,-1.01 -82.69,-424.81 -223.76,-836.69 -419.98,-1219.35 -210.79,-411.88 -431.33,-754.04 -314.58,-985.89 150.81,25.93 308.1,63.2 475.14,115.1 1288.93,392.44 2561.96,1324.78 2688.45,3572.21 7.13,122.59 10.53,249.08 10.53,379.62 -0.32,684.92 -100.34,1481.44 -325.11,2406.19 -50.24,202.66 -98.91,408.63 -150.81,614.55 -63.2,254.55 -126.44,510.75 -191.3,766.96 -115.14,445.95 -231.89,895.11 -353.51,1337.75 -53.5,194.61 -108.66,390.79 -163.77,583.75l0 0z"/>
   <path class="fil3" d="M16120.54 9435.37c-446.4,-111.88 -932.39,-240.3 -1444.94,-382.84 -443.64,-123.73 -907.56,-258 -1384.12,-401.82l0 0c578.87,-397.27 1118.86,-843.17 1597.22,-1355.58 611.28,-653.48 1117.21,-1422.09 1435,-2253.91 0,-0.19 0,-0.19 0,-0.19 140.61,194.43 348.51,355.63 587.15,368.09 9.75,0.64 19.49,0.82 29.19,0.82 69.59,0 137.39,-13.14 201.6,-36.81 -40.86,232.99 -92.11,476.23 -153.43,729.04 -270.45,1110.91 -557.32,2251.47 -867.67,3333.2zm1066.01 -6145.07c-145.48,-201.88 -317.98,-384.63 -511.13,-541.28 -14.43,-164.74 -36.95,-329.47 -67.75,-492.6 276.29,224.58 476.7,545.32 578.88,1033.88z"/>
   <path class="fil5" d="M2406.05 9691.9c-1039.72,68.9 -1139.14,187.26 -1196.87,1425.12l-19.3 0c-57.87,-1237.86 -157.29,-1356.22 -1197.01,-1425.12l0 -22.89c1039.72,-68.72 1139.14,-187.12 1197.01,-1425.13l19.3 0c57.73,1238.01 157.15,1356.41 1196.87,1425.13l0 22.89z"/>
   <path class="fil5" d="M3235.75 8506.7c-537.69,35.67 -589.08,96.81 -618.91,736.86l-9.88 0c-30.02,-640.05 -81.4,-701.19 -619.1,-736.86l0 -11.81c537.7,-35.67 589.08,-96.8 619.1,-736.81l9.88 0c29.83,640.01 81.22,701.14 618.91,736.81l0 11.81z"/>
   <path class="fil5" d="M3337.61 10704.36c-360.32,23.85 -394.7,64.85 -414.78,493.74l-6.67 0c-19.95,-428.89 -54.47,-469.89 -414.6,-493.74l0 -7.96c360.13,-23.81 394.65,-64.85 414.6,-493.75l6.67 0c20.08,428.9 54.46,469.94 414.78,493.75l0 7.96z"/>
   <path class="fil5" d="M3255.7 9566.37c0,59.84 -48.49,108.34 -108.15,108.34 -59.99,0 -108.3,-48.5 -108.3,-108.34 0,-59.8 48.31,-108.16 108.3,-108.16 59.66,0 108.15,48.36 108.15,108.16z"/>
   <path class="fil5" d="M403.29 8516.63c0,51.07 -41.33,92.39 -92.44,92.39 -50.88,0 -92.25,-41.32 -92.25,-92.39 0,-51.11 41.37,-92.29 92.25,-92.29 51.11,0 92.44,41.18 92.44,92.29z"/>
   <path class="fil6" d="M14315.61 2265.79c4.55,-19.12 7.95,-38.56 10.39,-58.37 35.21,-6.48 71.01,-12.46 106.68,-18.16 -11.81,7.77 -23.81,15.72 -36.13,23.68 -26.42,17.37 -53.36,34.88 -80.94,52.85z"/>
   <path class="fil7" d="M16323.7 5041.03c-4.82,-6.8 -9.56,-13.46 -14.24,-20.27 -140.43,-203.66 -223.44,-440.06 -329.48,-663.54 -386.93,-814.49 -1040.86,-1324.1 -1827.96,-1715.85 -29.83,-14.94 -56.76,-29.19 -81.08,-43.16 121.3,-71.98 211.44,-191.17 244.67,-332.42 27.58,-17.97 54.52,-35.48 80.94,-52.85 12.32,-7.96 24.32,-15.91 36.13,-23.68 46.38,-7.3 92.76,-13.92 137.34,-20.27 128.93,-17.83 258.97,-26.89 389.19,-26.89 336.64,0 673.42,60.31 987.36,181.93 263.46,102 509.65,246.78 728.85,424.99 0,0.32 0.19,0.64 0.19,0.96 16.18,207.58 19.44,416.76 9.7,624.29 -29.19,572.26 -155.5,1133.3 -361.61,1666.76z"/>
   <path class="fil8" d="M17141.64 5373.13c100.85,-575.48 139.09,-1089.68 113.49,-1535.58 -11.36,-202.84 -34.52,-384.31 -68.58,-547.25 149.02,207.06 269.81,434.4 355.26,675.03 104.24,293.34 156.97,619.42 59.2,915.2 -72.99,219.71 -246.97,414.14 -459.37,492.6z"/>
   <path class="fil9" d="M16940.04 5409.94c-9.7,0 -19.44,-0.18 -29.19,-0.82 -238.64,-12.46 -446.54,-173.66 -587.15,-368.09 206.11,-533.46 332.42,-1094.5 361.61,-1666.76 9.74,-207.53 6.48,-416.71 -9.7,-624.29 0,-0.32 -0.19,-0.64 -0.19,-0.96 193.15,156.65 365.65,339.4 511.13,541.28 34.06,162.94 57.22,344.41 68.58,547.25 25.6,445.9 -12.64,960.1 -113.49,1535.58 -64.21,23.67 -132.01,36.81 -201.6,36.81z"/>
   <path class="fil6" d="M13782.65 2671.02c-281.67,-10.53 -506.89,-242.24 -506.89,-526.66 0,-290.91 235.93,-526.85 526.98,-526.85 291.05,0 526.98,235.94 526.98,526.85 0,21.42 -1.28,42.33 -3.72,63.06 -304.19,55.8 -566.05,144.97 -366.93,314.58 -53.51,47.67 -112.2,97.63 -176.42,149.02z"/>
   <path class="fil7" d="M13802.74 2671.34c-6.66,0 -13.47,-0.14 -20.09,-0.32 64.22,-51.39 122.91,-101.35 176.42,-149.02 27.9,23.86 64.67,49.14 111.87,76.21 -78.64,46.38 -170.25,73.13 -268.2,73.13z"/>
   <path class="fil10" d="M13959.07 2522c-199.12,-169.61 62.74,-258.78 366.93,-314.58 -2.44,19.81 -5.84,39.25 -10.39,58.37 -66.46,43.49 -136.19,88.53 -208.68,133.94 -30.33,19.13 -58.19,40.55 -84.62,64.86 -20.27,18.66 -41.18,37.78 -63.24,57.41z"/>
   <path class="fil11" d="M14070.94 2598.21c-47.2,-27.07 -83.97,-52.35 -111.87,-76.21 22.06,-19.63 42.97,-38.75 63.24,-57.41 26.43,-24.31 54.29,-45.73 84.62,-64.86 72.49,-45.41 142.22,-90.45 208.68,-133.94 -33.23,141.25 -123.37,260.44 -244.67,332.42z"/>
   <path class="fil2" d="M10810.87 10017.33c-122.4,-37.14 -244.35,-74.93 -366.29,-113.67 246.28,-83.66 507.68,-124.38 770.23,-124.38l104.89 0 0 0 -25.93 13c-158.9,77.82 -317.84,152.42 -479.96,223.76 -1.01,0.46 -1.97,0.83 -2.94,1.29zm-4482.86 -1902.7c-730.01,-424.85 -1435.2,-885.18 -2170.58,-1312.47l0 0c-22.71,-94.04 -45.41,-186.48 -68.07,-278.87 -68.12,-280.56 -123.28,-548.08 -168.65,-804.28 199.44,108.61 395.62,209.18 580.49,312.92 489.52,277.31 988.97,534.98 1494.71,779.79 101.68,410.6 213.23,850.99 332.1,1302.91z"/>
   <path class="fil3" d="M10444.58 9903.66c-250.05,-79.62 -498.81,-163.13 -746.42,-250.83 -736.16,-261.08 -1459.37,-559.44 -2164.69,-895.11 -414.64,-197.01 -813.52,-414.92 -1205.46,-643.09 -118.87,-451.92 -230.42,-892.31 -332.1,-1302.91 0.19,0.18 0.19,0.18 0.33,0.18 890.24,432.94 1803.13,822.12 2717.69,1195.08 1151.27,470.22 2315.5,906.42 3491.13,1311.78 -290.26,163.77 -587.01,316.23 -885.36,460.52l-104.89 0c-262.55,0 -523.95,40.72 -770.23,124.38z"/>
   <path class="fil2" d="M5745.41 5768.79c-54.19,-28.22 -108.02,-56.45 -161.2,-84.67 53.18,28.22 106.87,56.45 161.2,84.48l0 0.19z"/>
   <path class="fil3" d="M12020.19 8255.37c-2208.03,-710.06 -4532.32,-1582.09 -6273.68,-2486.12 -0.32,-0.14 -0.64,-0.32 -1.1,-0.46l0 -0.19c1742.14,903.71 4066.29,1775.75 6274.78,2486.77z"/>
   <path class="fil12" d="M17366.36 11452.7c-290.26,-37.28 -578.87,-89.17 -859.4,-142.67 -305.02,-57.92 -610.36,-115.97 -915.38,-174.8 74.93,-219.58 148.38,-444.34 220.72,-673.43 0.14,0 0.33,0.14 0.65,0.14 572.39,163.77 1148.05,314.58 1726.93,450.77 -56.77,183.26 -115.14,363.26 -173.52,539.99l0 0zm-3873.97 -746.23c-902.24,-199.12 -1798.27,-421.91 -2681.52,-689.14 0.97,-0.46 1.93,-0.83 2.94,-1.29 162.12,-71.34 321.06,-145.94 479.96,-223.76l25.93 -13 202.52 0c590.91,0 1169.93,197.5 1620.56,580.02 128.11,108.8 244.21,225.09 349.61,347.17z"/>
   <path class="fil13" d="M15591.58 11135.23c-701.14,-135.28 -1401.96,-275.06 -2099.19,-428.76 -105.4,-122.08 -221.5,-238.37 -349.61,-347.17 -450.63,-382.52 -1029.65,-580.02 -1620.56,-580.02l-202.52 0c298.35,-144.29 595.1,-296.75 885.36,-460.52l0 0c496.19,173.51 995.59,338.89 1495.04,501.06 700.18,225.41 1403.89,442.54 2112.2,641.98 -72.34,229.09 -145.79,453.85 -220.72,673.43z"/>
   <path class="fil12" d="M16991.61 9644.05c-268.84,-60.95 -560.85,-130.68 -871.21,-208.36 0,0 0.14,-0.18 0.14,-0.32 310.86,77.82 602.23,147.55 871.07,208.68z"/>
   <path class="fil13" d="M16120.4 9435.69c-0.32,0 -0.69,-0.18 -1.01,-0.18 -446.54,-112.02 -931.7,-240.44 -1443.79,-382.98 512.55,142.54 998.54,270.96 1444.94,382.84 0,0.14 -0.14,0.32 -0.14,0.32z"/>
   <path class="fil14" d="M19842.42 11392.72c-561.04,-53.5 -1104.25,-214.06 -1655.55,-332.42 -22.89,-4.87 -43.8,-9.74 -66.51,-14.61 -38.88,-8.09 -77.82,-16.23 -115.14,-25.93 -155.63,-34.06 -309.71,-69.73 -465.34,-107.05 -578.88,-136.19 -1154.54,-287 -1726.93,-450.77 -708.59,-199.44 -1412.35,-416.71 -2112.85,-642.12 -499.45,-162.17 -998.85,-327.55 -1495.04,-501.06 -1175.63,-405.36 -2339.86,-841.56 -3491.13,-1311.78 -914.56,-372.96 -1827.45,-762.14 -2717.69,-1195.08 -505.89,-244.85 -1005.34,-502.66 -1495.04,-779.97 -184.87,-103.74 -381.05,-204.31 -580.49,-312.92 -591.88,-321.06 -1214.51,-703.76 -1649.11,-1386.43 -1337.75,-2109.58 1143.18,-2206.89 1456.15,-2185.79l3.22 22.71c-1138.31,687.49 -935.6,1503.13 45.42,2343.08 118.35,102.18 249.72,204.31 390.78,306.49 436.21,316.19 972.93,635.6 1579.34,950.18 2080.44,1079.93 4992.7,2114.5 7544.97,2881.46 1026.43,309.71 1994.49,575.66 2827.91,784.8 687.54,171.9 1284.25,304.88 1743.16,390.79l1.61 0c484.83,90.82 817.24,129.75 945.35,103.78 985.89,-196.17 21.09,-1433.4 -329.16,-1842.02l16.23 -17.83c760.48,638.86 4282.41,3599.75 1345.84,3322.49z"/>
   <path class="fil12" d="M10818.64 11723.48c90.18,-167.82 319.45,-214.2 531.39,-214.2 115.93,0 226.7,13.98 306.95,29.38 35.67,6.48 69.73,14.57 105.4,24.31l-713.46 0c-84.34,47.02 -160.55,100.52 -230.28,160.51z"/>
   <path class="fil2" d="M16393.43 13899.57c37.33,-72.94 72.99,-149.15 110.27,-225.36 -37.28,77.82 -72.94,152.42 -110.27,225.36z"/>
   <path class="fil12" d="M14311.43 15915.11c-1976.65,0 -966.45,-3473.3 -2549.05,-4352.14 687.54,165.38 1310.17,629.16 1639.37,1256.67 196.17,374.56 311.31,817.24 643.73,1076.71 195.39,152.1 433.26,214.01 679.9,214.01 271.79,0 554.11,-75.06 802.18,-188.08 509.14,-231.89 945.35,-595.1 1311.82,-1019.95 -108.66,270.82 -220.54,528.63 -335.68,771.88l0 0c-37.28,76.21 -72.94,152.42 -110.27,225.36l0 0c-11.35,22.71 -22.7,47.02 -35.67,69.73 -29.18,59.98 -59.98,118.36 -90.78,175.12 -13,25.97 -27.57,53.51 -43.8,81.08 -24.31,43.76 -48.63,89.18 -74.6,132.98 -238.33,416.71 -489.66,766.96 -752.35,1028.04 -27.57,29.19 -56.76,56.77 -85.95,82.69 -66.51,59.98 -132.97,115.14 -201.09,163.77 -21.05,14.62 -43.76,30.8 -66.47,45.41 -25.92,16.23 -51.89,32.41 -77.82,48.63 -27.57,16.23 -53.54,30.8 -81.08,43.81l-32.45 16.18c-58.19,27.58 -116.75,51.89 -176.73,69.73 -14.62,4.87 -30.8,9.74 -47.02,14.61 -25.97,8.09 -51.9,14.57 -79.47,19.45l-22.71 3.26c-21.05,4.87 -42.15,8.09 -63.2,11.35 -16.23,1.61 -34.06,3.22 -50.29,4.87 -34.06,3.22 -66.46,4.83 -100.52,4.83z"/>
   <path class="fil15" d="M18120.36 11045.69l0 0c-38.88,-8.09 -77.82,-16.23 -115.14,-25.93 63.25,-128.1 126.49,-257.81 188.13,-385.91 -22.89,137.8 -47.02,274.04 -72.99,411.84z"/>
  </g>
 </g>
</svg>
