<?xml version="1.0" encoding="UTF-8"?>
<!DOCTYPE svg PUBLIC "-//W3C//DTD SVG 1.1//EN" "http://www.w3.org/Graphics/SVG/1.1/DTD/svg11.dtd">
<!-- Creator: CorelDRAW 2020 (64 Bit) -->
<svg xmlns="http://www.w3.org/2000/svg" xml:space="preserve" width="210mm" height="178.066mm" version="1.1" style="shape-rendering:geometricPrecision; text-rendering:geometricPrecision; image-rendering:optimizeQuality; fill-rule:evenodd; clip-rule:evenodd"
viewBox="0 0 21000 17806.6"
 xmlns:xlink="http://www.w3.org/1999/xlink"
 xmlns:xodm="http://www.corel.com/coreldraw/odm/2003">
 <defs>
  <style type="text/css">
   <![CDATA[
    .fil5 {fill:#FEFEFE;fill-rule:nonzero}
    .fil11 {fill:#FAFCFA;fill-rule:nonzero}
    .fil10 {fill:#FAFCF8;fill-rule:nonzero}
    .fil7 {fill:#FAF8F6;fill-rule:nonzero}
    .fil6 {fill:#FAF8F3;fill-rule:nonzero}
    .fil1 {fill:#F7F5EE;fill-rule:nonzero}
    .fil0 {fill:#F7F2EB;fill-rule:nonzero}
    .fil9 {fill:#E5E4E3;fill-rule:nonzero}
    .fil8 {fill:#E5E4E1;fill-rule:nonzero}
    .fil3 {fill:#D3D4D0;fill-rule:nonzero}
    .fil2 {fill:#D3D2D0;fill-rule:nonzero}
    .fil13 {fill:#BFC0BE;fill-rule:nonzero}
    .fil12 {fill:#BDBFBD;fill-rule:nonzero}
    .fil4 {fill:#606569;fill-rule:nonzero}
    .fil15 {fill:#62A4C1;fill-rule:nonzero}
    .fil14 {fill:#20A4D6;fill-rule:nonzero}
   ]]>
  </style>
 </defs>
 <g id="Camada_x0020_1">
  <metadata id="CorelCorpID_0Corel-Layer"/>
  <g id="_1941861881168">
   <path class="fil0" d="M15517.87 4607.3c-35.47,143.07 -69.83,288.48 -106.46,433.85 -44.62,179.7 -89.27,360.58 -135.06,541.45 -81.28,314.82 -163.71,631.92 -249.57,944.4 -37.77,137.39 -76.71,275.89 -115.61,412.11 -11.46,40.08 -22.91,80.15 -34.34,120.23 -24.04,84.69 -49.22,169.41 -74.4,254.11 -18.34,62.95 -36.64,125.93 -56.11,187.75 -18.3,60.65 -36.63,120.19 -54.93,179.7l-8.02 25.18c-40.07,129.38 -81.28,256.45 -122.49,381.22 -91.58,277.02 -185.45,544.89 -283.9,799.03 -24.05,61.82 -48.09,123.63 -72.11,184.31 -5.74,13.73 -10.32,27.46 -16.03,40.05 -76.71,191.19 -155.69,373.2 -236.97,544.92 -26.32,54.93 -51.5,107.6 -77.85,159.1 -8.01,16.03 -16.03,33.19 -25.18,49.22 -20.61,42.35 -42.35,83.56 -64.09,123.63 -9.18,18.34 -19.47,37.78 -30.92,57.24 -17.17,30.9 -34.33,62.96 -52.67,93.88 -168.25,294.19 -345.68,541.45 -531.13,725.76 -19.47,20.61 -40.07,40.08 -60.68,58.38 -46.95,42.35 -93.87,81.28 -141.96,115.62 -14.87,10.32 -30.9,21.74 -46.93,32.06 -18.3,11.45 -36.63,22.87 -54.93,34.33 -19.47,11.45 -37.81,21.74 -57.24,30.92l-22.91 11.42c-41.08,19.47 -82.42,36.64 -124.77,49.23 -10.32,3.44 -21.74,6.88 -33.2,10.32 -18.33,5.71 -36.63,10.29 -56.1,13.72l-16.03 2.31c-14.86,3.44 -29.76,5.71 -44.62,8.01 -11.45,1.14 -24.04,2.28 -35.5,3.44 -24.04,2.27 -46.92,3.41 -70.97,3.41 -1395.45,0 -682.27,-2452.03 -1799.54,-3072.47l-503.68 0c-59.54,33.2 -113.34,70.97 -162.57,113.32 -70.96,60.68 -132.78,130.51 -186.58,208.35l0 1.14c-619.3,889.47 -234.68,2749.66 -1450.39,2749.66 -800.17,0 -1461.84,-1172.2 -2019.32,-2749.66l0 -1.14 -1.14 -3.43c-145.37,-410.98 -283.9,-848.26 -416.68,-1299.28 -226.66,-774.98 -436.15,-1591.18 -628.48,-2379.93 -16.03,-66.39 -32.06,-131.65 -48.06,-196.87 -48.09,-198.07 -87.03,-386.92 -119.05,-567.8 -18.34,-99.58 -34.37,-198.04 -46.96,-293.05 -2.27,-14.89 -4.57,-28.62 -5.71,-42.38 -11.45,-80.11 -20.6,-159.1 -28.62,-236.94 -9.15,-96.15 -16.03,-188.89 -20.6,-279.33 -107.61,-1988.39 888.33,-2761.11 1896.82,-3069.05 1220.29,-372.04 1778.94,248.43 2399.37,599.85 0,0 262.16,307.95 671.99,453.32 125.91,44.65 266.71,74.41 417.82,74.41 639.9,0 1089.78,-527.73 1089.78,-527.73 560.92,-317.09 1070.34,-855.13 2063.97,-681.11 106.47,18.3 217.51,44.62 335.43,81.26 909.95,277.05 1808.66,935.25 1897.96,2521.86 30.93,540.32 -33.19,1189.4 -222.08,1966.69z"/>
   <path class="fil1" d="M7605.65 7659.29c-92.84,0 -185.9,-3.44 -278.38,-10.41 -0.23,0 -0.59,-0.13 -0.81,-0.13 -83.11,-252.53 -167.38,-523.96 -254.6,-820.32 -106.47,-363.57 -208.46,-735.86 -303.69,-1097.7 276.69,161.08 558.29,314.92 851.01,454 497.94,236.98 1008.5,447.6 1528.2,631.92 174.81,61.91 350.42,120.87 526.95,177.07 -127.98,43.39 -250.12,103.26 -362.65,180.29 -110.82,75.8 -214.66,161.44 -310.93,256.68 -368.27,112.98 -745.56,192.97 -1129.73,219.32 -87.81,6.17 -176.52,9.28 -265.37,9.28zm4078.49 -1550.1c-293.63,-88.27 -594.01,-181.46 -897.48,-279.1 -1559.13,-501.96 -3199.89,-1117.59 -4429.79,-1755.57 -502.67,-2331.62 456.53,-2624.09 873.67,-2751.25 130.83,-39.98 246.09,-60.1 342.5,-60.1 190.25,0 334.62,82.74 669.2,302.07 64.35,42.15 133.27,87.35 206.19,133.04 20.93,13.14 40.3,27.81 58.47,44.62 205.5,189.11 550.4,453.9 1006.71,615.76 275.3,97.54 557.38,146.9 838.85,146.9 749.12,0 1326.07,-335.76 1678.44,-617.84 4.67,0.13 9.47,0.23 14.18,0.23 69.15,0 133.82,-18.89 189.34,-51.63 17.17,9.87 36.18,19.93 57.24,30.47 555.66,276.57 1017.32,636.33 1290.48,1211.34 74.86,157.76 133.46,324.65 232.6,468.43 3.31,4.81 6.65,9.51 10.05,14.31 0,0 0,0 0,0.13 -224.35,587.24 -581.52,1129.86 -1013.06,1591.19 -337.7,361.75 -718.92,676.54 -1127.59,957l0 0zm2388.96 -4166.4c-154.75,-125.81 -328.55,-228.02 -514.55,-300.03 -221.63,-85.86 -459.39,-128.43 -697.05,-128.43 -91.93,0 -183.72,6.39 -274.75,18.98 -31.47,4.48 -64.21,9.15 -96.95,14.31 315.86,-206.28 457.34,-284.68 641.88,-284.68 47.73,0 100.62,5.03 157.28,14.86 60.32,10.42 117.79,24.41 179.48,43.62 213.97,65.15 402.27,148.03 556.83,273.61 21.74,115.16 37.64,231.46 47.83,347.76z"/>
   <path class="fil2" d="M8301.43 11237.61c-800.17,0 -1461.84,-1172.2 -2019.32,-2749.66l0 -1.14 -1.14 -3.43c-145.37,-410.98 -283.9,-848.26 -416.68,-1299.28 431.32,278.06 942.69,426.87 1462.17,464.65 47.28,144.01 94.33,281.82 141.25,414.63l-0.46 -1.17 10.42 30.57c45.56,128.34 89.98,248.21 133.14,360.25 67.07,174 221.73,260.09 376.96,260.09 159.91,0 320.41,-91.22 386.7,-271.28 79.11,-215.11 179.84,-428.04 312.75,-628.02 9.73,-15.58 19.92,-30.9 30.57,-46.02 85.37,-122.95 179.93,-235.48 282.96,-337.11 0.35,-0.23 0.81,-0.36 1.26,-0.46 317.55,-97.09 627.08,-219.23 930.91,-356.26 623.54,188.66 1256.11,345.94 1893.06,486.51 232.73,269.5 391.37,578.58 505.4,889.02 65.48,178.34 224.61,268.09 383.48,268.09 155.47,0 310.67,-85.95 377.65,-259.17 37.09,-96.05 75.09,-197.81 114.03,-305.77 34.1,-94.88 67.98,-191.51 101.4,-289.48 215.34,41.54 430.9,82.52 646.23,123.41 198.04,37.77 401.79,74.4 606.71,100.72 -91.58,277.02 -185.45,544.89 -283.9,799.03 -24.05,61.82 -48.09,123.63 -72.11,184.31 -5.74,13.73 -10.32,27.46 -16.03,40.05l0 0c-258.71,299.93 -566.66,556.34 -926.1,720.05 -175.13,79.79 -374.43,132.78 -566.31,132.78 -174.12,0 -342.04,-43.71 -479.99,-151.08 -234.67,-183.18 -315.96,-495.7 -454.45,-760.13 -232.4,-443 -671.96,-770.41 -1157.34,-887.17l0 0c-25.18,-6.87 -49.22,-12.59 -74.4,-17.16 -56.66,-10.87 -134.86,-20.74 -216.7,-20.74 -149.63,0 -311.48,32.74 -375.15,151.22l0 0c-70.96,60.68 -132.78,130.51 -186.58,208.35l0 1.14c-619.3,889.47 -234.68,2749.66 -1450.39,2749.66z"/>
   <path class="fil3" d="M12714.86 8717.59c-158.87,0 -318,-89.75 -383.48,-268.09 -114.03,-310.44 -272.67,-619.52 -505.4,-889.02 492.22,108.51 986.98,207.19 1481.96,302.69 -33.42,97.97 -67.3,194.6 -101.4,289.48 -38.94,107.96 -76.94,209.72 -114.03,305.77 -66.98,173.22 -222.18,259.17 -377.65,259.17zm-4727.09 -4.47c-155.23,0 -309.89,-86.09 -376.96,-260.09 -43.16,-112.04 -87.58,-231.91 -133.14,-360.25l-10.42 -30.57 0.46 1.17c-46.92,-132.81 -93.97,-270.62 -141.25,-414.63 0.22,0 0.58,0.13 0.81,0.13 92.48,6.97 185.54,10.41 278.38,10.41 88.85,0 177.56,-3.11 265.37,-9.28 384.17,-26.35 761.46,-106.34 1129.73,-219.32 -103.03,101.63 -197.59,214.16 -282.96,337.11 -10.65,15.12 -20.84,30.44 -30.57,46.02 -132.91,199.98 -233.64,412.91 -312.75,628.02 -66.29,180.06 -226.79,271.28 -386.7,271.28z"/>
   <path class="fil4" d="M14912.3 6939.11l-1.13 0 0 0c38.9,-136.22 77.84,-274.72 115.61,-412.11 85.86,-312.48 168.29,-629.58 249.57,-944.4 45.79,-180.87 90.44,-361.75 135.06,-541.45 36.63,-145.37 70.99,-290.78 106.46,-433.85 158.68,-652.85 229.29,-1215.16 229.52,-1698.69 -0.23,483.53 -70.84,1045.84 -229.52,1698.69 -35.47,143.07 -69.83,288.48 -106.46,433.85 -44.62,179.7 -89.27,360.58 -135.06,541.45 -81.28,314.82 -163.71,631.92 -249.57,944.4 -37.77,138.53 -75.54,275.89 -114.48,412.11l0 0z"/>
   <path class="fil2" d="M14911.17 6939.11l0 0c-177.57,-33.29 -384.3,-76.45 -614.85,-128.66 -189.8,-43.16 -395.5,-92.38 -614.95,-147.32 219.1,-763.66 421.61,-1568.86 612.54,-2353.13 43.29,-178.47 79.47,-350.19 108.32,-514.68 149.95,-55.39 272.77,-192.65 324.3,-347.76 69.02,-208.81 31.8,-439.01 -41.8,-646.1 -60.32,-169.87 -145.6,-330.36 -250.8,-476.55 -72.13,-344.9 -213.61,-571.33 -408.66,-729.88 0,-0.23 -0.13,-0.49 -0.13,-0.72 -58.38,-299.89 -157.97,-590.67 -296.49,-860.81 -148.82,-290.78 -304.51,-532.33 -222.09,-696.01 106.47,18.3 217.51,44.62 335.43,81.26 909.95,277.05 1808.66,935.25 1897.96,2521.86 5.03,86.54 7.44,175.84 7.44,268 -0.23,483.53 -70.84,1045.84 -229.52,1698.69 -35.47,143.07 -69.83,288.48 -106.46,433.85 -44.62,179.7 -89.27,360.58 -135.06,541.45 -81.28,314.82 -163.71,631.92 -249.57,944.4 -37.77,137.39 -76.71,275.89 -115.61,412.11l0 0z"/>
   <path class="fil3" d="M13681.37 6663.13c-315.15,-78.98 -658.24,-169.65 -1020.08,-270.27 -313.2,-87.36 -640.71,-182.14 -977.15,-283.67l0 0c408.67,-280.46 789.89,-595.25 1127.59,-957 431.54,-461.33 788.71,-1003.95 1013.06,-1591.19 0,-0.13 0,-0.13 0,-0.13 99.27,137.27 246.04,251.07 414.51,259.86 6.88,0.45 13.76,0.58 20.61,0.58 49.13,0 96.99,-9.28 142.32,-25.99 -28.85,164.49 -65.03,336.21 -108.32,514.68 -190.93,784.27 -393.44,1589.47 -612.54,2353.13zm752.56 -4338.22c-102.7,-142.52 -224.48,-271.53 -360.83,-382.12 -10.19,-116.3 -26.09,-232.6 -47.83,-347.76 195.05,158.55 336.53,384.98 408.66,729.88z"/>
   <path class="fil5" d="M3896.56 16918.84l-204.43 433.01 -204.43 -433.01 -161.27 0 293.31 562.51 0 319.98 144.75 0 0 -319.98 292.05 -562.51 -159.98 0zm803.71 891.38c82.55,0 158.74,-19.04 228.57,-58.4 68.57,-38.1 123.18,-91.45 162.54,-161.28 39.36,-68.56 59.67,-146.02 59.67,-232.37 0,-86.34 -20.31,-163.8 -59.67,-232.37 -39.36,-68.56 -93.97,-121.88 -162.54,-161.24 -69.83,-38.09 -146.02,-57.14 -228.57,-57.14 -82.52,0 -157.45,19.05 -226.01,57.14 -69.83,39.36 -124.45,92.68 -163.81,161.24 -40.62,68.57 -60.94,146.03 -60.94,232.37 0,86.35 20.32,163.81 60.94,232.37 39.36,69.83 93.98,123.18 163.81,161.28 68.56,39.36 143.49,58.4 226.01,58.4zm0 -125.7c-58.41,0 -110.46,-13.96 -156.18,-40.63 -45.72,-26.67 -81.26,-64.77 -106.66,-114.29 -26.68,-49.51 -39.36,-106.66 -39.36,-171.43 0,-64.73 12.68,-121.88 39.36,-171.39 25.4,-49.52 60.94,-86.35 106.66,-113.03 45.72,-26.67 97.77,-39.36 156.18,-39.36 58.41,0 110.49,12.69 156.18,39.36 45.72,26.68 81.28,63.51 107.92,113.03 25.41,49.51 38.1,106.66 38.1,171.39 0,64.77 -12.69,121.92 -38.1,171.43 -26.64,49.52 -62.2,87.62 -107.92,114.29 -45.69,26.67 -97.77,40.63 -156.18,40.63zm718.75 -765.68l0 559.98c0,72.36 15.22,133.33 45.69,182.85 30.5,49.52 72.39,87.61 124.44,111.72 52.08,24.15 109.19,36.83 172.7,36.83 63.5,0 121.91,-12.68 173.96,-36.83 52.05,-24.11 93.97,-62.2 125.71,-111.72 31.73,-49.52 46.98,-110.49 46.98,-182.85l0 -559.98 -144.75 0 0 562.51c0,67.3 -17.79,116.82 -52.08,151.12 -35.54,34.26 -85.05,50.78 -148.56,50.78 -62.2,0 -111.72,-16.52 -146.02,-50.78 -35.56,-34.3 -53.31,-83.82 -53.31,-151.12l0 -562.51 -144.76 0zm1635.45 882.49l-218.42 -365.7c69.86,-16.48 120.65,-49.52 154.91,-96.5 33.04,-46.96 49.52,-99.04 49.52,-156.18 0,-49.52 -11.42,-93.94 -34.27,-133.31 -24.14,-39.36 -58.4,-71.12 -105.39,-95.23 -46.99,-24.15 -105.4,-35.57 -172.7,-35.57l-304.73 0 0 882.49 144.76 0 0 -352.98 110.46 0 203.16 352.98 172.7 0zm-486.32 -764.41l159.97 0c54.62,0 96.51,12.72 123.18,38.1 26.67,26.67 40.63,62.24 40.63,107.93 0,45.72 -13.96,82.55 -40.63,109.22 -27.94,26.64 -68.56,40.63 -123.18,40.63l-159.97 0 0 -295.88zm1532.58 773.3c62.21,0 116.82,-12.68 163.8,-36.83 45.69,-24.11 81.26,-55.87 105.4,-95.23 24.11,-39.37 35.53,-82.52 35.53,-126.98 0,-55.88 -12.69,-100.3 -38.09,-134.6 -26.68,-33 -57.15,-57.14 -93.94,-73.63 -36.83,-16.51 -85.09,-31.73 -143.5,-48.25 -44.45,-11.42 -78.72,-22.87 -104.12,-33.03 -25.41,-10.16 -45.73,-24.11 -62.21,-41.89 -16.52,-16.52 -25.41,-39.36 -25.41,-66.04 0,-39.36 12.69,-69.83 39.36,-91.41 26.68,-21.58 59.68,-31.73 101.6,-31.73 45.69,0 82.52,11.42 110.46,34.26 27.94,22.85 43.16,50.79 45.72,82.55l159.98 0c-6.36,-74.92 -35.57,-133.33 -90.15,-176.52 -54.61,-41.89 -125.71,-63.47 -210.79,-63.47 -59.67,0 -113.02,10.16 -158.71,30.47 -45.72,20.31 -81.28,49.52 -106.66,87.61 -25.41,38.1 -38.1,82.55 -38.1,133.34 0,54.58 12.69,99.03 38.1,132.03 25.38,33.04 55.88,57.15 92.68,72.4 35.56,16.51 82.55,31.73 139.69,46.98 45.69,11.43 81.25,22.85 107.93,33.01 25.37,10.15 46.98,24.14 64.76,43.19 16.49,19.04 25.38,43.15 25.38,72.36 0,38.09 -13.95,68.56 -41.89,92.71 -27.94,24.1 -67.3,36.79 -116.82,36.79 -48.25,0 -85.08,-12.69 -111.75,-36.79 -26.65,-24.15 -41.9,-55.88 -45.69,-93.98l-154.92 0c0,50.79 13.96,95.24 40.63,133.34 26.67,38.09 64.74,67.3 111.72,87.61 46.99,21.58 100.34,31.73 160.01,31.73zm747.86 -891.38l-144.76 0 0 882.49 443.13 0 0 -116.81 -298.37 0 0 -765.68zm948.49 891.38c82.56,0 158.75,-19.04 228.58,-58.4 68.56,-38.1 123.18,-91.45 162.54,-161.28 39.36,-68.56 59.67,-146.02 59.67,-232.37 0,-86.34 -20.31,-163.8 -59.67,-232.37 -39.36,-68.56 -93.98,-121.88 -162.54,-161.24 -69.83,-38.09 -146.02,-57.14 -228.58,-57.14 -82.51,0 -157.44,19.05 -226,57.14 -69.84,39.36 -124.45,92.68 -163.81,161.24 -40.63,68.57 -60.94,146.03 -60.94,232.37 0,86.35 20.31,163.81 60.94,232.37 39.36,69.83 93.97,123.18 163.81,161.28 68.56,39.36 143.49,58.4 226,58.4zm0 -125.7c-58.4,0 -110.45,-13.96 -156.17,-40.63 -45.72,-26.67 -81.26,-64.77 -106.66,-114.29 -26.68,-49.51 -39.37,-106.66 -39.37,-171.43 0,-64.73 12.69,-121.88 39.37,-171.39 25.4,-49.52 60.94,-86.35 106.66,-113.03 45.72,-26.67 97.77,-39.36 156.17,-39.36 58.41,0 110.49,12.69 156.18,39.36 45.72,26.68 81.29,63.51 107.93,113.03 25.41,49.51 38.1,106.66 38.1,171.39 0,64.77 -12.69,121.92 -38.1,171.43 -26.64,49.52 -62.21,87.62 -107.93,114.29 -45.69,26.67 -97.77,40.63 -156.18,40.63zm1532.62 -511.73c-33.03,-85.08 -86.35,-149.82 -158.74,-196.81 -73.63,-45.72 -157.45,-68.56 -251.42,-68.56 -82.52,0 -157.44,19.05 -226.01,57.14 -69.83,39.36 -124.44,92.68 -163.8,161.24 -40.63,68.57 -60.94,146.03 -60.94,232.37 0,86.35 20.31,163.81 60.94,232.37 39.36,68.57 93.97,121.91 162.53,160.01 68.57,39.36 144.76,58.41 227.28,58.41 77.46,0 147.29,-17.78 210.79,-52.08 62.21,-34.27 114.29,-79.99 153.65,-137.13 39.36,-57.15 63.47,-120.62 72.36,-189.18l0 -113.02 -486.32 0 0 115.55 331.41 0c-11.42,74.92 -40.63,134.6 -90.15,179.05 -49.51,44.43 -113.02,66.01 -191.74,66.01 -58.41,0 -110.46,-12.69 -156.18,-39.37 -45.72,-26.64 -81.25,-63.47 -106.66,-112.98 -26.67,-48.26 -39.36,-104.13 -39.36,-167.64 0,-63.47 12.69,-119.35 39.36,-167.6 25.41,-48.25 60.94,-85.08 106.66,-111.72 45.72,-26.67 97.77,-39.36 156.18,-39.36 53.35,0 100.33,11.42 140.96,33 40.63,22.84 72.36,55.88 95.24,100.3l173.96 0zm891.35 628.54l152.38 0 -316.18 -883.75 -167.6 0 -316.19 883.75 151.12 0 63.5 -180.32 369.5 0 63.47 180.32zm-392.34 -298.4l144.75 -410.13 143.46 410.13 -288.21 0zm1533.84 -585.35l-144.75 0 0 657.74 -435.54 -657.74 -144.75 0 0 883.75 144.75 0 0 -659.01 435.54 659.01 144.75 0 0 -883.75zm1334.48 1.26l0 378.39 -415.22 0 0 -378.39 -144.76 0 0 882.49 144.76 0 0 -386.01 415.22 0 0 386.01 144.73 0 0 -882.49 -144.73 0zm949.76 116.82l0 -118.08 -487.58 0 0 883.75 487.58 0 0 -118.08 -342.82 0 0 -270.46 304.73 0 0 -118.09 -304.73 0 0 -259.04 342.82 0zm935.84 765.67l-218.41 -365.7c69.86,-16.48 120.64,-49.52 154.91,-96.5 33.03,-46.96 49.52,-99.04 49.52,-156.18 0,-49.52 -11.43,-93.94 -34.27,-133.31 -24.14,-39.36 -58.41,-71.12 -105.4,-95.23 -46.98,-24.15 -105.39,-35.57 -172.69,-35.57l-304.73 0 0 882.49 144.75 0 0 -352.98 110.46 0 203.17 352.98 172.69 0zm-486.32 -764.41l159.98 0c54.61,0 96.5,12.72 123.18,38.1 26.67,26.67 40.62,62.24 40.62,107.93 0,45.72 -13.95,82.55 -40.62,109.22 -27.94,26.64 -68.57,40.63 -123.18,40.63l-159.98 0 0 -295.88zm1272.28 -1.26l0 -118.08 -487.59 0 0 883.75 487.59 0 0 -118.08 -342.83 0 0 -270.46 304.73 0 0 -118.09 -304.73 0 0 -259.04 342.83 0z"/>
   <path class="fil5" d="M-7.13 15569.53l635.33 0c291.91,0 515.13,-80.11 666.8,-237.53 151.7,-157.41 228.96,-386.34 228.96,-686.85 0,-306.23 -77.26,-538.01 -231.82,-698.28 -157.37,-157.41 -377.74,-237.53 -666.8,-237.53l-632.47 0 0 1860.19zm394.94 -203.2l0 -1453.82 237.53 0c111.63,0 200.35,22.91 266.15,71.55 65.84,48.67 117.34,125.93 148.82,231.82 31.47,105.88 45.78,248.98 45.78,429.27 0,180.29 -14.31,320.53 -45.78,423.56 -31.48,105.88 -77.27,180.29 -143.11,226.07 -65.8,48.68 -154.52,71.55 -266.15,71.55l-243.24 0zm2612.89 203.2l0 -206.05 -761.26 0 0 -635.33 635.32 0 0 -200.34 -635.32 0 0 -612.41 721.18 0 0 -206.06 -1116.12 0 0 1860.19 1156.2 0zm589.54 0l0 -1230.61 -22.91 -165.97 5.74 0 884.31 1396.58 309.08 0 0 -1860.19 -246.13 0 0 1133.3 20.03 128.75 -5.71 0 -781.29 -1262.05 -409.25 0 0 1860.19 246.13 0zm2335.28 0l0 -1654.13 497.97 0 0 -206.06 -1396.59 0 0 206.06 500.82 0 0 1654.13 397.8 0zm661.06 0l168.87 -520.84 646.74 0 160.27 520.84 417.85 0 -578.12 -1860.19 -437.84 0 -618.16 1860.19 240.39 0zm500.82 -1576.87l5.71 0 254.73 875.71 -535.19 0 274.75 -875.71zm2280.9 1576.87l0 -206.05 -721.19 0 0 -1654.14 -394.94 0 0 1860.19 1116.13 0z"/>
   <path class="fil5" d="M10710.05 15597.41c114.32,0 217.47,-22.3 303.92,-66.91 86.41,-44.62 156.14,-105.95 203.52,-186.81 47.41,-78.08 69.7,-167.28 69.7,-270.44 0,-103.19 -19.5,-186.81 -61.33,-250.96 -41.83,-64.12 -94.78,-117.08 -153.35,-153.32 -58.54,-36.25 -139.41,-72.5 -236.98,-114.32 -80.87,-33.46 -147.78,-64.16 -195.18,-92.03 -50.2,-27.87 -92.03,-64.12 -122.7,-111.53 -33.45,-44.62 -50.16,-100.36 -50.16,-170.06 0,-97.58 30.66,-175.65 89.2,-234.22 58.57,-58.54 142.19,-86.42 245.38,-86.42 69.7,0 133.82,11.13 192.36,33.46 58.57,22.29 105.95,47.37 142.2,72.49 36.24,25.08 55.78,41.83 55.78,44.62l27.87 -122.69c0,-2.79 -19.5,-19.54 -58.54,-47.41 -39.03,-25.08 -89.23,-50.17 -153.35,-75.28 -64.12,-22.3 -136.62,-33.46 -217.48,-33.46 -161.73,0 -289.97,44.62 -387.57,133.82 -97.58,92.03 -144.99,211.93 -144.99,365.25 0,97.61 19.54,175.68 61.36,237.01 41.83,64.12 92,111.53 150.57,147.78 58.54,36.24 136.61,72.49 234.19,111.52 83.65,36.25 150.56,66.92 200.76,94.79 47.38,27.91 89.2,64.15 122.66,111.53 33.45,47.41 50.2,103.19 50.2,172.89 0,100.36 -33.46,184.02 -100.37,250.93 -66.91,69.7 -158.94,103.16 -276.04,103.16 -97.58,0 -181.23,-16.75 -248.14,-47.41 -69.71,-30.67 -119.91,-64.12 -156.15,-100.37 -36.25,-36.25 -52.96,-55.75 -52.96,-61.33l-69.7 108.74c0,8.34 19.5,30.66 58.54,69.7 36.24,41.83 94.78,78.07 175.65,114.32 80.86,36.25 181.23,52.96 301.13,52.96zm1617.14 0c161.73,0 301.13,-36.25 418.24,-111.53 117.11,-75.28 206.32,-181.23 270.44,-323.42 61.36,-139.41 92.02,-303.92 92.02,-496.28 0,-192.4 -30.66,-356.91 -92.02,-499.11 -64.12,-139.4 -153.33,-248.14 -270.44,-323.42 -117.11,-75.28 -256.51,-111.53 -418.24,-111.53 -161.69,0 -301.13,36.25 -415.41,111.53 -117.11,75.28 -206.35,184.02 -267.68,323.42 -61.33,142.2 -92.02,306.71 -92.02,499.11 0,192.36 30.69,356.87 92.02,496.28 61.33,142.19 150.57,248.14 267.68,323.42 114.28,75.28 253.72,111.53 415.41,111.53zm0 -133.82c-178.44,0 -315.05,-66.91 -407.07,-203.56 -94.79,-136.61 -142.2,-334.55 -142.2,-593.85 0,-259.31 47.41,-457.28 142.2,-593.89 94.81,-136.61 231.42,-206.35 407.07,-206.35 178.44,0 315.09,69.74 412.66,206.35 94.79,136.61 142.19,334.58 142.19,593.89 0,259.3 -47.4,457.24 -142.19,593.85 -97.57,136.65 -234.22,203.56 -412.66,203.56zm1324.39 105.94l0 -2096.71 -200.76 11.16 0 2085.55 200.76 0zm1076.22 27.88c209.13,0 365.24,-55.75 468.43,-167.28 103.16,-111.53 156.12,-262.09 156.12,-451.69l0 -1221.24 -153.33 0 0 1173.83c0,164.52 -36.24,292.76 -111.52,384.78 -75.29,92 -189.61,139.4 -337.38,139.4 -142.19,0 -250.93,-44.61 -326.21,-136.61 -75.29,-89.23 -111.53,-217.47 -111.53,-387.57l0 -1173.83 -209.14 0 0 1221.24c0,189.6 52.99,340.16 161.73,451.69 105.95,111.53 259.3,167.28 462.83,167.28zm1611.59 -27.88l0 -1678.47 518.57 0 0 -133.86 -1246.31 0 0 133.86 515.81 0 0 1678.47 211.93 0zm1012.1 0l0 -1812.33 -211.9 0 0 1812.33 211.9 0zm1173.82 27.88c161.73,0 301.13,-36.25 418.24,-111.53 117.11,-75.28 206.31,-181.23 270.43,-323.42 61.36,-139.41 92.03,-303.92 92.03,-496.28 0,-192.4 -30.67,-356.91 -92.03,-499.11 -64.12,-139.4 -153.32,-248.14 -270.43,-323.42 -117.11,-75.28 -256.51,-111.53 -418.24,-111.53 -161.7,0 -301.13,36.25 -415.42,111.53 -117.11,75.28 -206.34,184.02 -267.67,323.42 -61.33,142.2 -92.03,306.71 -92.03,499.11 0,192.36 30.7,356.87 92.03,496.28 61.33,142.19 150.56,248.14 267.67,323.42 114.29,75.28 253.72,111.53 415.42,111.53zm0 -133.82c-178.44,0 -315.05,-66.91 -407.08,-203.56 -94.78,-136.61 -142.19,-334.55 -142.19,-593.85 0,-259.31 47.41,-457.28 142.19,-593.89 94.82,-136.61 231.43,-206.35 407.08,-206.35 178.44,0 315.08,69.74 412.66,206.35 94.78,136.61 142.19,334.58 142.19,593.89 0,259.3 -47.41,457.24 -142.19,593.85 -97.58,136.65 -234.22,203.56 -412.66,203.56zm1329.97 105.94l0 -1458.21 -13.96 -86.44 2.8 0 964.71 1544.65 184.02 0 0 -1812.33 -153.35 0 0 1427.55 8.37 66.94 -925.68 -1494.49 -220.27 0 0 1812.33 153.36 0z"/>
   <path class="fil5" d="M3999.39 6844.23c-734,48.64 -804.19,132.2 -844.95,1006.09l-13.62 0c-40.86,-873.89 -111.05,-957.45 -845.05,-1006.09l0 -16.16c734,-48.51 804.19,-132.1 845.05,-1006.09l13.62 0c40.76,873.99 110.95,957.58 844.95,1006.09l0 16.16z"/>
   <path class="fil5" d="M4585.14 6007.52c-379.6,25.18 -415.87,68.34 -436.93,520.2l-6.98 0c-21.19,-451.86 -57.47,-495.02 -437.06,-520.2l0 -8.34c379.59,-25.18 415.87,-68.34 437.06,-520.16l6.98 0c21.06,451.82 57.33,494.98 436.93,520.16l0 8.34z"/>
   <path class="fil5" d="M4657.04 7558.99c-254.37,16.84 -278.64,45.79 -292.82,348.57l-4.7 0c-14.09,-302.78 -38.46,-331.73 -292.7,-348.57l0 -5.61c254.24,-16.81 278.61,-45.79 292.7,-348.57l4.7 0c14.18,302.78 38.45,331.76 292.82,348.57l0 5.61z"/>
   <path class="fil5" d="M4599.22 6755.61c0,42.25 -34.23,76.48 -76.35,76.48 -42.35,0 -76.45,-34.23 -76.45,-76.48 0,-42.22 34.1,-76.35 76.45,-76.35 42.12,0 76.35,34.13 76.35,76.35z"/>
   <path class="fil5" d="M2585.51 6014.53c0,36.05 -29.17,65.22 -65.26,65.22 -35.92,0 -65.12,-29.17 -65.12,-65.22 0,-36.08 29.2,-65.16 65.12,-65.16 36.09,0 65.26,29.08 65.26,65.16z"/>
   <path class="fil6" d="M12407.15 1601.65c3.21,-13.5 5.61,-27.23 7.33,-41.21 24.86,-4.58 50.14,-8.8 75.32,-12.82 -8.34,5.48 -16.81,11.1 -25.51,16.71 -18.66,12.27 -37.67,24.63 -57.14,37.32z"/>
   <path class="fil7" d="M13824.79 3560.87c-3.4,-4.8 -6.74,-9.5 -10.05,-14.31 -99.14,-143.78 -157.74,-310.67 -232.6,-468.43 -273.16,-575.01 -734.82,-934.77 -1290.48,-1211.34 -21.06,-10.54 -40.07,-20.6 -57.24,-30.47 85.63,-50.81 149.27,-134.96 172.73,-234.67 19.47,-12.69 38.48,-25.05 57.14,-37.32 8.7,-5.61 17.17,-11.23 25.51,-16.71 32.74,-5.16 65.48,-9.83 96.95,-14.31 91.03,-12.59 182.82,-18.98 274.75,-18.98 237.66,0 475.42,42.57 697.05,128.43 186,72.01 359.8,174.22 514.55,300.03 0,0.23 0.13,0.45 0.13,0.68 11.42,146.54 13.72,294.22 6.84,440.73 -20.6,403.99 -109.77,800.07 -255.28,1176.67z"/>
   <path class="fil8" d="M14402.23 3795.32c71.19,-406.26 98.19,-769.28 80.12,-1084.07 -8.02,-143.2 -24.37,-271.31 -48.42,-386.34 105.2,146.19 190.48,306.68 250.8,476.55 73.6,207.09 110.82,437.29 41.8,646.1 -51.53,155.11 -174.35,292.37 -324.3,347.76z"/>
   <path class="fil9" d="M14259.91 3821.31c-6.85,0 -13.73,-0.13 -20.61,-0.58 -168.47,-8.79 -315.24,-122.59 -414.51,-259.86 145.51,-376.6 234.68,-772.68 255.28,-1176.67 6.88,-146.51 4.58,-294.19 -6.84,-440.73 0,-0.23 -0.13,-0.45 -0.13,-0.68 136.35,110.59 258.13,239.6 360.83,382.12 24.05,115.03 40.4,243.14 48.42,386.34 18.07,314.79 -8.93,677.81 -80.12,1084.07 -45.33,16.71 -93.19,25.99 -142.32,25.99z"/>
   <path class="fil6" d="M12030.9 1887.72c-198.85,-7.43 -357.85,-171.01 -357.85,-371.8 0,-205.37 166.56,-371.94 372.03,-371.94 205.47,0 372.03,166.57 372.03,371.94 0,15.12 -0.91,29.88 -2.63,44.52 -214.75,39.39 -399.61,102.34 -259.04,222.08 -37.77,33.65 -79.21,68.92 -124.54,105.2z"/>
   <path class="fil7" d="M12045.08 1887.95c-4.71,0 -9.51,-0.1 -14.18,-0.23 45.33,-36.28 86.77,-71.55 124.54,-105.2 19.69,16.84 45.65,34.69 78.98,53.8 -55.52,32.74 -120.19,51.63 -189.34,51.63z"/>
   <path class="fil10" d="M12155.44 1782.52c-140.57,-119.74 44.29,-182.69 259.04,-222.08 -1.72,13.98 -4.12,27.71 -7.33,41.21 -46.92,30.7 -96.15,62.5 -147.32,94.56 -21.42,13.49 -41.08,28.62 -59.74,45.78 -14.31,13.18 -29.08,26.67 -44.65,40.53z"/>
   <path class="fil11" d="M12234.42 1836.32c-33.33,-19.11 -59.29,-36.96 -78.98,-53.8 15.57,-13.86 30.34,-27.35 44.65,-40.53 18.66,-17.16 38.32,-32.29 59.74,-45.78 51.17,-32.06 100.4,-63.86 147.32,-94.56 -23.46,99.71 -87.1,183.86 -172.73,234.67z"/>
   <path class="fil2" d="M9932.92 7073.97c-86.41,-26.22 -172.5,-52.89 -258.59,-80.25 173.86,-59.05 358.4,-87.8 543.75,-87.8l74.05 0 0 0 -18.3 9.18c-112.18,54.94 -224.39,107.6 -338.84,157.96 -0.71,0.33 -1.39,0.59 -2.07,0.91zm-3164.75 -1343.24c-515.36,-299.93 -1013.2,-624.91 -1532.36,-926.56l0 0c-16.03,-66.39 -32.06,-131.65 -48.06,-196.87 -48.09,-198.07 -87.03,-386.92 -119.05,-567.8 140.79,76.68 279.29,147.68 409.8,220.92 345.58,195.76 698.18,377.68 1055.22,550.5 71.78,289.87 150.53,600.77 234.45,919.81z"/>
   <path class="fil3" d="M9674.33 6993.72c-176.53,-56.2 -352.14,-115.16 -526.95,-177.07 -519.7,-184.32 -1030.26,-394.94 -1528.2,-631.92 -292.72,-139.08 -574.32,-292.92 -851.01,-454 -83.92,-319.04 -162.67,-629.94 -234.45,-919.81 0.13,0.13 0.13,0.13 0.23,0.13 628.48,305.64 1272.95,580.39 1918.6,843.68 812.76,331.96 1634.66,639.9 2464.62,926.08 -204.92,115.61 -414.41,223.25 -625.04,325.11l-74.05 0c-185.35,0 -369.89,28.75 -543.75,87.8z"/>
   <path class="fil2" d="M6356.87 4074.65c-38.26,-19.93 -76.26,-39.85 -113.8,-59.78 37.54,19.93 75.45,39.85 113.8,59.65l0 0.13z"/>
   <path class="fil3" d="M10786.66 5830.09c-1558.8,-501.28 -3199.67,-1116.91 -4429.01,-1755.12 -0.23,-0.1 -0.46,-0.23 -0.78,-0.32l0 -0.13c1229.9,637.98 2870.66,1253.61 4429.79,1755.57z"/>
   <path class="fil12" d="M14560.88 8087.3c-204.92,-26.32 -408.67,-62.95 -606.71,-100.72 -215.33,-40.89 -430.89,-81.87 -646.23,-123.41 52.89,-155.01 104.75,-313.69 155.82,-475.41 0.1,0 0.23,0.09 0.46,0.09 404.09,115.62 810.48,222.09 1219.15,318.23 -40.07,129.38 -81.28,256.45 -122.49,381.22l0 0zm-2734.9 -526.82c-636.95,-140.57 -1269.52,-297.85 -1893.06,-486.51 0.68,-0.32 1.36,-0.58 2.07,-0.91 114.45,-50.36 226.66,-103.02 338.84,-157.96l18.3 -9.18 142.97 0c417.17,0 825.94,139.43 1144.07,409.47 90.44,76.81 172.4,158.91 246.81,245.09z"/>
   <path class="fil13" d="M13307.94 7863.17c-494.98,-95.5 -989.74,-194.18 -1481.96,-302.69 -74.41,-86.18 -156.37,-168.28 -246.81,-245.09 -318.13,-270.04 -726.9,-409.47 -1144.07,-409.47l-142.97 0c210.63,-101.86 420.12,-209.5 625.04,-325.11l0 0c350.29,122.49 702.85,239.24 1055.45,353.73 494.3,159.13 991.1,312.42 1491.14,453.22 -51.07,161.72 -102.93,320.4 -155.82,475.41z"/>
   <path class="fil12" d="M14296.32 6810.45c-189.8,-43.03 -395.95,-92.25 -615.05,-147.09 0,0 0.1,-0.13 0.1,-0.23 219.45,54.94 425.15,104.16 614.95,147.32z"/>
   <path class="fil13" d="M13681.27 6663.36c-0.23,0 -0.49,-0.13 -0.71,-0.13 -315.25,-79.08 -657.75,-169.75 -1019.27,-270.37 361.84,100.62 704.93,191.29 1020.08,270.27 0,0.1 -0.1,0.23 -0.1,0.23z"/>
   <path class="fil14" d="M16308.89 8044.95c-396.08,-37.77 -779.56,-151.11 -1168.76,-234.67 -16.16,-3.44 -30.93,-6.88 -46.96,-10.32 -27.45,-5.71 -54.93,-11.46 -81.28,-18.3 -109.87,-24.05 -218.64,-49.23 -328.52,-75.58 -408.67,-96.14 -815.06,-202.61 -1219.15,-318.23 -500.24,-140.79 -997.07,-294.18 -1491.6,-453.31 -352.6,-114.49 -705.16,-231.24 -1055.45,-353.73 -829.96,-286.18 -1651.86,-594.12 -2464.62,-926.08 -645.65,-263.29 -1290.12,-538.04 -1918.6,-843.68 -357.14,-172.86 -709.74,-354.87 -1055.45,-550.63 -130.51,-73.24 -269.01,-144.24 -409.8,-220.92 -417.85,-226.66 -857.41,-496.83 -1164.22,-978.77 -944.41,-1489.29 807.05,-1557.99 1027.99,-1543.09l2.28 16.03c-803.61,485.34 -660.51,1061.16 32.06,1654.13 83.55,72.14 176.29,144.24 275.88,216.38 307.94,223.22 686.86,448.71 1114.96,670.79 1468.72,762.4 3524.68,1492.77 5326.49,2034.22 724.63,218.64 1408.05,406.39 1996.42,554.04 485.37,121.36 906.63,215.23 1230.61,275.88l1.13 0c342.28,64.12 576.95,91.61 667.39,73.27 696,-138.49 14.89,-1011.93 -232.37,-1300.41l11.45 -12.59c536.88,451.02 3023.24,2541.31 950.12,2345.57z"/>
   <path class="fil12" d="M9938.4 8278.46c63.67,-118.48 225.52,-151.22 375.15,-151.22 81.84,0 160.04,9.87 216.7,20.74 25.18,4.57 49.22,10.29 74.4,17.16l-503.68 0c-59.54,33.2 -113.34,70.97 -162.57,113.32z"/>
   <path class="fil2" d="M13874.02 9814.71c26.35,-51.5 51.53,-105.3 77.85,-159.1 -26.32,54.93 -51.5,107.6 -77.85,159.1z"/>
   <path class="fil12" d="M12404.19 11237.61c-1395.45,0 -682.27,-2452.03 -1799.54,-3072.47 485.38,116.76 924.94,444.17 1157.34,887.17 138.49,264.43 219.78,576.95 454.45,760.13 137.95,107.37 305.87,151.08 479.99,151.08 191.88,0 391.18,-52.99 566.31,-132.78 359.44,-163.71 667.39,-420.12 926.1,-720.05 -76.71,191.19 -155.69,373.2 -236.97,544.92l0 0c-26.32,53.8 -51.5,107.6 -77.85,159.1l0 0c-8.01,16.03 -16.03,33.19 -25.18,49.22 -20.61,42.35 -42.35,83.56 -64.09,123.63 -9.18,18.34 -19.47,37.78 -30.92,57.24 -17.17,30.9 -34.33,62.96 -52.67,93.88 -168.25,294.19 -345.68,541.45 -531.13,725.76 -19.47,20.61 -40.07,40.08 -60.68,58.38 -46.95,42.35 -93.87,81.28 -141.96,115.62 -14.87,10.32 -30.9,21.74 -46.93,32.06 -18.3,11.45 -36.63,22.87 -54.93,34.33 -19.47,11.45 -37.81,21.74 -57.24,30.92l-22.91 11.42c-41.08,19.47 -82.42,36.64 -124.77,49.23 -10.32,3.44 -21.74,6.88 -33.2,10.32 -18.33,5.71 -36.63,10.29 -56.1,13.72l-16.03 2.31c-14.86,3.44 -29.76,5.71 -44.62,8.01 -11.45,1.14 -24.04,2.28 -35.5,3.44 -24.04,2.27 -46.92,3.41 -70.97,3.41z"/>
   <path class="fil15" d="M15093.17 7799.96l0 0c-27.45,-5.71 -54.93,-11.46 -81.28,-18.3 44.65,-90.44 89.3,-182.01 132.81,-272.45 -16.16,97.29 -33.19,193.47 -51.53,290.75z"/>
  </g>
 </g>
</svg>
