<?xml version="1.0" encoding="UTF-8"?>
<!DOCTYPE svg PUBLIC "-//W3C//DTD SVG 1.1//EN" "http://www.w3.org/Graphics/SVG/1.1/DTD/svg11.dtd">
<!-- Creator: CorelDRAW 2020 (64 Bit) -->
<svg xmlns="http://www.w3.org/2000/svg" xml:space="preserve" width="210mm" height="42.021mm" version="1.1" style="shape-rendering:geometricPrecision; text-rendering:geometricPrecision; image-rendering:optimizeQuality; fill-rule:evenodd; clip-rule:evenodd"
viewBox="0 0 21000 4202.1"
 xmlns:xlink="http://www.w3.org/1999/xlink"
 xmlns:xodm="http://www.corel.com/coreldraw/odm/2003">
 <defs>
  <style type="text/css">
   <![CDATA[
    .fil0 {fill:#FEFEFE;fill-rule:nonzero}
   ]]>
  </style>
 </defs>
 <g id="Camada_x0020_1">
  <metadata id="CorelCorpID_0Corel-Layer"/>
  <g id="_1941737446480">
   <path class="fil0" d="M-7.12 2103.86l635.33 0c291.91,0 515.13,-80.11 666.8,-237.53 151.7,-157.41 228.96,-386.34 228.96,-686.85 0,-306.23 -77.26,-538.01 -231.82,-698.28 -157.37,-157.41 -377.74,-237.53 -666.8,-237.53l-632.47 0 0 1860.19zm394.94 -203.2l0 -1453.82 237.53 0c111.63,0 200.35,22.91 266.15,71.55 65.84,48.67 117.34,125.93 148.82,231.82 31.47,105.88 45.78,248.98 45.78,429.27 0,180.29 -14.31,320.53 -45.78,423.56 -31.48,105.88 -77.27,180.29 -143.11,226.07 -65.8,48.68 -154.52,71.55 -266.15,71.55l-243.24 0zm2612.89 203.2l0 -206.05 -761.26 0 0 -635.33 635.32 0 0 -200.34 -635.32 0 0 -612.41 721.18 0 0 -206.06 -1116.12 0 0 1860.19 1156.2 0zm589.54 0l0 -1230.61 -22.91 -165.97 5.74 0 884.31 1396.58 309.08 0 0 -1860.19 -246.13 0 0 1133.3 20.03 128.75 -5.71 0 -781.29 -1262.05 -409.25 0 0 1860.19 246.13 0zm2335.28 0l0 -1654.13 497.97 0 0 -206.06 -1396.59 0 0 206.06 500.82 0 0 1654.13 397.8 0zm661.06 0l168.87 -520.84 646.74 0 160.27 520.84 417.85 0 -578.12 -1860.19 -437.84 0 -618.16 1860.19 240.39 0zm500.82 -1576.87l5.71 0 254.73 875.71 -535.19 0 274.75 -875.71zm2280.9 1576.87l0 -206.05 -721.19 0 0 -1654.14 -394.94 0 0 1860.19 1116.13 0z"/>
   <path class="fil0" d="M10710.06 2131.74c114.32,0 217.47,-22.3 303.92,-66.91 86.41,-44.62 156.14,-105.95 203.52,-186.81 47.41,-78.08 69.7,-167.28 69.7,-270.44 0,-103.19 -19.5,-186.81 -61.33,-250.96 -41.83,-64.12 -94.78,-117.08 -153.35,-153.32 -58.54,-36.25 -139.41,-72.5 -236.98,-114.32 -80.87,-33.46 -147.78,-64.16 -195.18,-92.03 -50.2,-27.87 -92.03,-64.12 -122.7,-111.53 -33.45,-44.62 -50.16,-100.36 -50.16,-170.06 0,-97.58 30.66,-175.65 89.2,-234.22 58.57,-58.54 142.19,-86.42 245.38,-86.42 69.7,0 133.82,11.13 192.36,33.46 58.57,22.29 105.95,47.37 142.2,72.49 36.24,25.08 55.78,41.83 55.78,44.62l27.87 -122.69c0,-2.79 -19.5,-19.54 -58.54,-47.41 -39.03,-25.08 -89.23,-50.17 -153.35,-75.28 -64.12,-22.3 -136.62,-33.46 -217.48,-33.46 -161.73,0 -289.97,44.62 -387.57,133.82 -97.58,92.03 -144.99,211.93 -144.99,365.25 0,97.61 19.54,175.68 61.36,237.01 41.83,64.12 92,111.53 150.57,147.78 58.54,36.24 136.61,72.49 234.19,111.52 83.65,36.25 150.56,66.92 200.76,94.79 47.38,27.91 89.2,64.15 122.66,111.53 33.45,47.41 50.2,103.19 50.2,172.89 0,100.36 -33.46,184.02 -100.37,250.93 -66.91,69.7 -158.94,103.16 -276.04,103.16 -97.58,0 -181.23,-16.75 -248.14,-47.41 -69.71,-30.67 -119.91,-64.12 -156.15,-100.37 -36.25,-36.25 -52.96,-55.75 -52.96,-61.33l-69.7 108.74c0,8.34 19.5,30.66 58.54,69.7 36.24,41.83 94.78,78.07 175.65,114.32 80.86,36.25 181.23,52.96 301.13,52.96zm1617.14 0c161.73,0 301.13,-36.25 418.24,-111.53 117.11,-75.28 206.32,-181.23 270.44,-323.42 61.36,-139.41 92.02,-303.92 92.02,-496.28 0,-192.4 -30.66,-356.91 -92.02,-499.11 -64.12,-139.4 -153.33,-248.14 -270.44,-323.42 -117.11,-75.28 -256.51,-111.53 -418.24,-111.53 -161.69,0 -301.13,36.25 -415.41,111.53 -117.11,75.28 -206.35,184.02 -267.68,323.42 -61.33,142.2 -92.02,306.71 -92.02,499.11 0,192.36 30.69,356.87 92.02,496.28 61.33,142.19 150.57,248.14 267.68,323.42 114.28,75.28 253.72,111.53 415.41,111.53zm0 -133.82c-178.44,0 -315.05,-66.91 -407.07,-203.56 -94.79,-136.61 -142.2,-334.55 -142.2,-593.85 0,-259.31 47.41,-457.28 142.2,-593.89 94.81,-136.61 231.42,-206.35 407.07,-206.35 178.44,0 315.09,69.74 412.66,206.35 94.79,136.61 142.19,334.58 142.19,593.89 0,259.3 -47.4,457.24 -142.19,593.85 -97.57,136.65 -234.22,203.56 -412.66,203.56zm1324.39 105.94l0 -2096.71 -200.76 11.16 0 2085.55 200.76 0zm1076.22 27.88c209.13,0 365.24,-55.75 468.43,-167.28 103.16,-111.53 156.12,-262.09 156.12,-451.69l0 -1221.24 -153.33 0 0 1173.83c0,164.52 -36.24,292.76 -111.52,384.78 -75.29,92 -189.61,139.4 -337.38,139.4 -142.19,0 -250.93,-44.61 -326.21,-136.61 -75.29,-89.23 -111.53,-217.47 -111.53,-387.57l0 -1173.83 -209.14 0 0 1221.24c0,189.6 52.99,340.16 161.73,451.69 105.95,111.53 259.3,167.28 462.83,167.28zm1611.59 -27.88l0 -1678.47 518.57 0 0 -133.86 -1246.31 0 0 133.86 515.81 0 0 1678.47 211.93 0zm1012.1 0l0 -1812.33 -211.9 0 0 1812.33 211.9 0zm1173.82 27.88c161.73,0 301.13,-36.25 418.24,-111.53 117.11,-75.28 206.31,-181.23 270.43,-323.42 61.36,-139.41 92.03,-303.92 92.03,-496.28 0,-192.4 -30.67,-356.91 -92.03,-499.11 -64.12,-139.4 -153.32,-248.14 -270.43,-323.42 -117.11,-75.28 -256.51,-111.53 -418.24,-111.53 -161.7,0 -301.13,36.25 -415.42,111.53 -117.11,75.28 -206.34,184.02 -267.67,323.42 -61.33,142.2 -92.03,306.71 -92.03,499.11 0,192.36 30.7,356.87 92.03,496.28 61.33,142.19 150.56,248.14 267.67,323.42 114.29,75.28 253.72,111.53 415.42,111.53zm0 -133.82c-178.44,0 -315.05,-66.91 -407.08,-203.56 -94.78,-136.61 -142.19,-334.55 -142.19,-593.85 0,-259.31 47.41,-457.28 142.19,-593.89 94.82,-136.61 231.43,-206.35 407.08,-206.35 178.44,0 315.08,69.74 412.66,206.35 94.78,136.61 142.19,334.58 142.19,593.89 0,259.3 -47.41,457.24 -142.19,593.85 -97.58,136.65 -234.22,203.56 -412.66,203.56zm1329.97 105.94l0 -1458.21 -13.96 -86.44 2.8 0 964.71 1544.65 184.02 0 0 -1812.33 -153.35 0 0 1427.55 8.37 66.94 -925.68 -1494.49 -220.27 0 0 1812.33 153.36 0z"/>
  </g>
  <path class="fil0" d="M3238.47 3303.52c-77.06,-41.91 -160.87,-63.54 -254.15,-63.54 -93.28,0 -177.09,21.63 -254.15,63.54 -77.05,41.9 -136.54,100.03 -181.15,174.39 -44.61,74.35 -66.24,155.46 -66.24,244.68 0,90.57 21.63,171.69 66.24,246.04 44.61,74.35 104.1,132.48 181.15,175.74 77.06,43.26 160.87,64.89 254.15,64.89 93.28,0 177.09,-21.63 254.15,-64.89 77.05,-43.26 136.53,-101.39 181.14,-175.74 44.62,-74.35 66.25,-155.47 66.25,-246.04 0,-89.22 -21.63,-170.33 -66.25,-244.68 -44.61,-74.36 -104.09,-132.49 -181.14,-174.39zm-423.13 125.72c52.72,-29.74 109.5,-44.61 170.33,-44.61 60.83,0 117.61,14.87 168.98,44.61 51.37,31.09 91.93,71.65 123.02,123.02 29.74,51.37 44.61,108.15 44.61,170.33 0,62.19 -14.87,118.96 -44.61,171.69 -31.09,52.72 -71.65,93.27 -123.02,124.37 -51.37,31.09 -108.15,45.96 -168.98,45.96 -60.83,0 -117.61,-14.87 -168.98,-45.96 -52.72,-31.1 -93.28,-71.65 -124.37,-124.37 -31.09,-52.73 -47.32,-109.5 -47.32,-171.69 0,-62.18 14.88,-118.96 45.97,-170.33 31.09,-51.37 71.65,-91.93 124.37,-123.02zm2059.48 -117.61c-74.35,-40.56 -159.52,-60.83 -252.8,-60.83l-387.98 0 0 946.29 383.93 0c94.63,0 179.79,-20.28 254.14,-62.19 74.36,-40.55 133.84,-97.33 175.74,-168.98 41.91,-71.64 63.54,-151.4 63.54,-241.98 0,-90.57 -20.28,-171.68 -62.18,-243.33 -41.91,-71.65 -100.04,-128.43 -174.39,-168.98zm-83.82 700.26c-50.02,28.39 -104.09,41.9 -164.92,41.9l-232.52 0 0 -659.7 225.76 0c60.83,0 117.61,13.52 167.63,41.91 50.02,28.39 90.57,68.94 120.31,118.96 28.39,50.02 43.26,106.8 43.26,170.33 0,63.54 -13.52,118.97 -41.91,168.99 -28.39,50.01 -67.59,89.22 -117.61,117.61zm1708 -708.37c-77.06,-41.91 -160.87,-63.54 -254.15,-63.54 -93.28,0 -177.09,21.63 -254.15,63.54 -77.05,41.9 -136.54,100.03 -181.15,174.39 -44.61,74.35 -66.24,155.46 -66.24,244.68 0,90.57 21.63,171.69 66.24,246.04 44.61,74.35 104.1,132.48 181.15,175.74 77.06,43.26 160.87,64.89 254.15,64.89 93.28,0 177.09,-21.63 254.15,-64.89 77.05,-43.26 136.53,-101.39 181.14,-175.74 44.62,-74.35 66.25,-155.47 66.25,-246.04 0,-89.22 -21.63,-170.33 -66.25,-244.68 -44.61,-74.36 -104.09,-132.49 -181.14,-174.39zm-423.13 125.72c52.72,-29.74 109.5,-44.61 170.33,-44.61 60.83,0 117.61,14.87 168.98,44.61 51.37,31.09 91.93,71.65 123.02,123.02 29.74,51.37 44.61,108.15 44.61,170.33 0,62.19 -14.87,118.96 -44.61,171.69 -31.09,52.72 -71.65,93.27 -123.02,124.37 -51.37,31.09 -108.15,45.96 -168.98,45.96 -60.83,0 -117.61,-14.87 -168.98,-45.96 -52.72,-31.1 -93.28,-71.65 -124.37,-124.37 -31.09,-52.73 -47.32,-109.5 -47.32,-171.69 0,-62.18 14.88,-118.96 45.97,-170.33 31.09,-51.37 71.65,-91.93 124.37,-123.02zm2082.46 -178.44l0 684.03 -506.95 -684.03 -156.81 0 0 946.29 159.52 0 0 -681.33 504.24 681.33 156.81 0 0 -946.29 -156.81 0zm872.56 0l0 143.29 298.76 0 0 803 159.51 0 0 -803 300.11 0 0 -143.29 -758.38 0zm2093.27 52.72c-77.06,-41.91 -160.87,-63.54 -254.15,-63.54 -93.28,0 -177.09,21.63 -254.15,63.54 -77.05,41.9 -136.54,100.03 -181.15,174.39 -44.61,74.35 -66.24,155.46 -66.24,244.68 0,90.57 21.63,171.69 66.24,246.04 44.61,74.35 104.1,132.48 181.15,175.74 77.06,43.26 160.87,64.89 254.15,64.89 93.28,0 177.09,-21.63 254.15,-64.89 77.05,-43.26 136.53,-101.39 181.14,-175.74 44.62,-74.35 66.25,-155.47 66.25,-246.04 0,-89.22 -21.63,-170.33 -66.25,-244.68 -44.61,-74.36 -104.09,-132.49 -181.14,-174.39zm-423.13 125.72c52.72,-29.74 109.5,-44.61 170.33,-44.61 60.83,0 117.61,14.87 168.98,44.61 51.37,31.09 91.93,71.65 123.02,123.02 29.74,51.37 44.61,108.15 44.61,170.33 0,62.19 -14.87,118.96 -44.61,171.69 -31.09,52.72 -71.65,93.27 -123.02,124.37 -51.37,31.09 -108.15,45.96 -168.98,45.96 -60.83,0 -117.61,-14.87 -168.98,-45.96 -52.72,-31.1 -93.28,-71.65 -124.37,-124.37 -31.09,-52.73 -47.32,-109.5 -47.32,-171.69 0,-62.18 14.88,-118.96 45.97,-170.33 31.09,-51.37 71.65,-91.93 124.37,-123.02zm1418.7 -178.44l0 946.29 569.13 0 0 -144.65 -409.61 0 0 -801.64 -159.52 0zm1977.02 52.72c-77.06,-41.91 -160.87,-63.54 -254.15,-63.54 -93.28,0 -177.09,21.63 -254.15,63.54 -77.05,41.9 -136.54,100.03 -181.15,174.39 -44.61,74.35 -66.24,155.46 -66.24,244.68 0,90.57 21.63,171.69 66.24,246.04 44.61,74.35 104.1,132.48 181.15,175.74 77.06,43.26 160.87,64.89 254.15,64.89 93.28,0 177.09,-21.63 254.15,-64.89 77.05,-43.26 136.53,-101.39 181.14,-175.74 44.62,-74.35 66.25,-155.47 66.25,-246.04 0,-89.22 -21.63,-170.33 -66.25,-244.68 -44.61,-74.36 -104.09,-132.49 -181.14,-174.39zm-423.13 125.72c52.72,-29.74 109.5,-44.61 170.33,-44.61 60.83,0 117.61,14.87 168.98,44.61 51.37,31.09 91.93,71.65 123.02,123.02 29.74,51.37 44.61,108.15 44.61,170.33 0,62.19 -14.87,118.96 -44.61,171.69 -31.09,52.72 -71.65,93.27 -123.02,124.37 -51.37,31.09 -108.15,45.96 -168.98,45.96 -60.83,0 -117.61,-14.87 -168.98,-45.96 -52.72,-31.1 -93.28,-71.65 -124.37,-124.37 -31.09,-52.73 -47.32,-109.5 -47.32,-171.69 0,-62.18 14.88,-118.96 45.97,-170.33 31.09,-51.37 71.65,-91.93 124.37,-123.02zm1797.22 366.35l229.81 0 1.36 200.07c-71.65,43.26 -144.65,64.89 -217.65,64.89 -95.98,0 -177.09,-32.44 -244.69,-97.33 -67.59,-64.89 -101.39,-144.65 -101.39,-239.28 0,-93.28 33.8,-173.03 100.04,-237.92 66.24,-64.89 148.71,-97.34 244.69,-97.34 104.09,0 196.01,36.5 273.07,108.15l90.57 -117.61c-47.31,-40.55 -102.74,-73 -167.63,-97.33 -64.88,-24.34 -129.77,-35.15 -196.01,-35.15 -143.3,0 -263.61,44.61 -360.95,136.54 -97.33,91.92 -146,205.48 -146,340.66 0,135.19 47.32,248.74 143.3,340.67 95.98,91.92 214.94,139.24 354.18,139.24 63.54,0 128.43,-10.82 194.67,-33.8 66.24,-22.98 124.37,-52.72 173.04,-89.22l1.35 -424.48 -371.76 0 0 139.24zm1174.02 -544.79l0 946.29 159.52 0 0 -946.29 -159.52 0zm1687.72 946.29l170.33 0 -413.66 -946.29 -163.58 0 -417.72 946.29 166.28 0 90.57 -213.59 477.21 0 90.57 213.59zm-508.3 -355.54l178.45 -420.42 178.44 420.42 -356.89 0z"/>
 </g>
</svg>
